<?xml version="1.0" encoding="UTF-8" standalone="no"?>
<!DOCTYPE svg PUBLIC "-//W3C//DTD SVG 1.1//EN" "http://www.w3.org/Graphics/SVG/1.1/DTD/svg11.dtd">
<svg width="100%" height="100%" viewBox="0 0 440 440" version="1.1" xmlns="http://www.w3.org/2000/svg" xmlns:xlink="http://www.w3.org/1999/xlink" xml:space="preserve" xmlns:serif="http://www.serif.com/" style="fill-rule:evenodd;clip-rule:evenodd;stroke-linecap:round;stroke-linejoin:round;stroke-miterlimit:1.5;">
    <circle cx="220" cy="220" r="144" style="fill:rgb(136,136,136);stroke:black;stroke-width:0.33px;"/>
    <path d="M220,12C334.798,12 428,105.202 428,220C428,334.798 334.798,428 220,428C105.202,428 12,334.798 12,220C12,105.202 105.202,12 220,12ZM220,76C140.524,76 76,140.524 76,220C76,299.476 140.524,364 220,364C299.476,364 364,299.476 364,220C364,140.524 299.476,76 220,76Z" style="fill:rgb(206,206,206);stroke:black;stroke-width:6.67px;"/>
    <g transform="matrix(1,0,0,1,-36,-36)">
        <g transform="matrix(0.713439,39.9936,-39.9936,0.713439,63.8363,248.569)">
            <path d="M0.511,-0.328C0.511,-0.248 0.509,-0.192 0.505,-0.159C0.501,-0.126 0.49,-0.096 0.47,-0.068C0.45,-0.041 0.424,-0.02 0.39,-0.005C0.357,0.009 0.318,0.017 0.273,0.017C0.231,0.017 0.193,0.01 0.159,-0.004C0.125,-0.018 0.098,-0.039 0.078,-0.066C0.057,-0.094 0.045,-0.124 0.041,-0.157C0.037,-0.189 0.035,-0.246 0.035,-0.328L0.035,-0.463C0.035,-0.542 0.037,-0.599 0.041,-0.632C0.045,-0.665 0.056,-0.695 0.076,-0.722C0.096,-0.75 0.122,-0.771 0.156,-0.785C0.189,-0.8 0.228,-0.807 0.273,-0.807C0.315,-0.807 0.353,-0.8 0.387,-0.786C0.421,-0.773 0.448,-0.752 0.468,-0.724C0.489,-0.696 0.501,-0.666 0.505,-0.634C0.509,-0.601 0.511,-0.544 0.511,-0.463L0.511,-0.328ZM0.305,-0.587C0.305,-0.624 0.303,-0.648 0.299,-0.658C0.295,-0.668 0.287,-0.673 0.274,-0.673C0.263,-0.673 0.255,-0.669 0.249,-0.661C0.244,-0.653 0.241,-0.628 0.241,-0.587L0.241,-0.218C0.241,-0.172 0.243,-0.144 0.246,-0.133C0.25,-0.123 0.259,-0.117 0.272,-0.117C0.286,-0.117 0.295,-0.123 0.299,-0.136C0.303,-0.148 0.305,-0.178 0.305,-0.224L0.305,-0.587Z" style="fill-rule:nonzero;"/>
        </g>
        <g transform="matrix(5.95541,39.5542,-39.5542,5.95541,64.5831,274.395)">
            <path d="M0.041,-0.791L0.248,-0.791C0.304,-0.791 0.347,-0.786 0.377,-0.777C0.407,-0.769 0.43,-0.756 0.445,-0.739C0.46,-0.723 0.47,-0.703 0.476,-0.679C0.481,-0.655 0.484,-0.619 0.484,-0.569L0.484,-0.5C0.484,-0.45 0.479,-0.413 0.468,-0.39C0.458,-0.367 0.439,-0.349 0.411,-0.337C0.383,-0.325 0.347,-0.318 0.302,-0.318L0.247,-0.318L0.247,-0L0.041,-0L0.041,-0.791ZM0.247,-0.655L0.247,-0.454C0.252,-0.454 0.257,-0.454 0.262,-0.454C0.281,-0.454 0.294,-0.458 0.301,-0.468C0.308,-0.477 0.312,-0.496 0.312,-0.525L0.312,-0.59C0.312,-0.617 0.308,-0.635 0.299,-0.643C0.291,-0.651 0.273,-0.655 0.247,-0.655Z" style="fill-rule:nonzero;"/>
        </g>
        <g transform="matrix(9.93096,38.7476,-38.7476,9.93096,68.5656,298.173)">
            <rect x="0.041" y="-0.791" width="0.206" height="0.791" style="fill-rule:nonzero;"/>
        </g>
        <g transform="matrix(14.0516,37.4507,-37.4507,14.0516,72.3675,313.233)">
            <path d="M0.5,-0.791L0.5,-0L0.32,-0L0.213,-0.359L0.213,-0L0.041,-0L0.041,-0.791L0.213,-0.791L0.328,-0.435L0.328,-0.791L0.5,-0.791Z" style="fill-rule:nonzero;"/>
        </g>
        <g transform="matrix(17.9998,35.7213,-35.7213,17.9998,81.8368,337.074)">
            <rect x="0.041" y="-0.791" width="0.206" height="0.791" style="fill-rule:nonzero;"/>
        </g>
        <g transform="matrix(21.7338,33.5804,-33.5804,21.7338,88.7641,350.957)">
            <path d="M0.511,-0.328C0.511,-0.248 0.509,-0.192 0.505,-0.159C0.501,-0.126 0.49,-0.096 0.47,-0.068C0.45,-0.041 0.424,-0.02 0.39,-0.005C0.357,0.009 0.318,0.017 0.273,0.017C0.231,0.017 0.193,0.01 0.159,-0.004C0.125,-0.018 0.098,-0.039 0.078,-0.066C0.057,-0.094 0.045,-0.124 0.041,-0.157C0.037,-0.189 0.035,-0.246 0.035,-0.328L0.035,-0.463C0.035,-0.542 0.037,-0.599 0.041,-0.632C0.045,-0.665 0.056,-0.695 0.076,-0.722C0.096,-0.75 0.122,-0.771 0.156,-0.785C0.189,-0.8 0.228,-0.807 0.273,-0.807C0.315,-0.807 0.353,-0.8 0.387,-0.786C0.421,-0.773 0.448,-0.752 0.468,-0.724C0.489,-0.696 0.501,-0.666 0.505,-0.634C0.509,-0.601 0.511,-0.544 0.511,-0.463L0.511,-0.328ZM0.305,-0.587C0.305,-0.624 0.303,-0.648 0.299,-0.658C0.295,-0.668 0.287,-0.673 0.274,-0.673C0.263,-0.673 0.255,-0.669 0.249,-0.661C0.244,-0.653 0.241,-0.628 0.241,-0.587L0.241,-0.218C0.241,-0.172 0.243,-0.144 0.246,-0.133C0.25,-0.123 0.259,-0.117 0.272,-0.117C0.286,-0.117 0.295,-0.123 0.299,-0.136C0.303,-0.148 0.305,-0.178 0.305,-0.224L0.305,-0.587Z" style="fill-rule:nonzero;"/>
        </g>
        <g transform="matrix(26.011,30.388,-30.388,26.011,103.055,372.527)">
            <path d="M0.5,-0.791L0.5,-0L0.32,-0L0.213,-0.359L0.213,-0L0.041,-0L0.041,-0.791L0.213,-0.791L0.328,-0.435L0.328,-0.791L0.5,-0.791Z" style="fill-rule:nonzero;"/>
        </g>
        <g transform="matrix(29.7193,26.7724,-26.7724,29.7193,120.027,391.879)">
            <path d="M0.396,-0.791L0.514,-0L0.303,-0L0.293,-0.142L0.219,-0.142L0.207,-0L-0.006,-0L0.099,-0.791L0.396,-0.791ZM0.287,-0.282C0.277,-0.372 0.266,-0.482 0.256,-0.614C0.235,-0.463 0.222,-0.352 0.217,-0.282L0.287,-0.282Z" style="fill-rule:nonzero;"/>
        </g>
        <g transform="matrix(32.4637,23.3689,-23.3689,32.4637,136.522,406.541)">
            <path d="M0.455,-0.791L0.455,-0.632L0.333,-0.632L0.333,-0L0.127,-0L0.127,-0.632L0.006,-0.632L0.006,-0.791L0.455,-0.791Z" style="fill-rule:nonzero;"/>
        </g>
        <g transform="matrix(34.9179,19.5126,-19.5126,34.9179,154.888,419.449)">
            <path d="M0.041,-0.791L0.384,-0.791L0.384,-0.632L0.247,-0.632L0.247,-0.482L0.375,-0.482L0.375,-0.332L0.247,-0.332L0.247,-0.158L0.397,-0.158L0.397,-0L0.041,-0L0.041,-0.791Z" style="fill-rule:nonzero;"/>
        </g>
        <g transform="matrix(37.0071,15.1813,-15.1813,37.0071,172.925,429.481)">
            <path d="M0.041,-0.791L0.195,-0.791C0.294,-0.791 0.361,-0.786 0.396,-0.777C0.431,-0.768 0.458,-0.753 0.476,-0.732C0.494,-0.711 0.506,-0.688 0.51,-0.662C0.515,-0.637 0.517,-0.587 0.517,-0.512L0.517,-0.235C0.517,-0.164 0.514,-0.116 0.507,-0.093C0.5,-0.069 0.489,-0.05 0.472,-0.036C0.456,-0.023 0.435,-0.013 0.411,-0.008C0.386,-0.003 0.349,-0 0.3,-0L0.041,-0L0.041,-0.791ZM0.247,-0.655L0.247,-0.135C0.276,-0.135 0.294,-0.141 0.301,-0.153C0.308,-0.165 0.312,-0.197 0.312,-0.25L0.312,-0.557C0.312,-0.593 0.31,-0.616 0.308,-0.626C0.306,-0.636 0.301,-0.643 0.292,-0.648C0.284,-0.653 0.269,-0.655 0.247,-0.655Z" style="fill-rule:nonzero;"/>
        </g>
        <g transform="matrix(39.2143,7.88921,-7.88921,39.2143,207.837,442.189)">
            <path d="M0.477,-0.551L0.286,-0.551L0.286,-0.61C0.286,-0.637 0.283,-0.655 0.278,-0.662C0.273,-0.67 0.265,-0.673 0.254,-0.673C0.242,-0.673 0.232,-0.668 0.226,-0.658C0.219,-0.648 0.216,-0.633 0.216,-0.612C0.216,-0.586 0.22,-0.566 0.227,-0.553C0.234,-0.539 0.253,-0.523 0.285,-0.504C0.377,-0.45 0.434,-0.405 0.458,-0.371C0.482,-0.336 0.494,-0.28 0.494,-0.202C0.494,-0.146 0.487,-0.104 0.474,-0.078C0.461,-0.051 0.435,-0.029 0.397,-0.01C0.36,0.008 0.316,0.017 0.266,0.017C0.211,0.017 0.164,0.006 0.125,-0.015C0.086,-0.035 0.06,-0.062 0.048,-0.094C0.036,-0.126 0.03,-0.172 0.03,-0.231L0.03,-0.283L0.221,-0.283L0.221,-0.187C0.221,-0.157 0.224,-0.138 0.229,-0.13C0.235,-0.121 0.244,-0.117 0.258,-0.117C0.271,-0.117 0.282,-0.123 0.288,-0.133C0.295,-0.144 0.298,-0.16 0.298,-0.181C0.298,-0.228 0.292,-0.258 0.279,-0.272C0.266,-0.287 0.234,-0.311 0.183,-0.344C0.132,-0.378 0.098,-0.403 0.082,-0.418C0.065,-0.433 0.051,-0.454 0.04,-0.481C0.029,-0.508 0.024,-0.543 0.024,-0.585C0.024,-0.646 0.032,-0.69 0.047,-0.718C0.063,-0.746 0.088,-0.768 0.122,-0.783C0.157,-0.799 0.198,-0.807 0.247,-0.807C0.3,-0.807 0.346,-0.799 0.384,-0.781C0.421,-0.764 0.446,-0.742 0.458,-0.716C0.47,-0.69 0.477,-0.645 0.477,-0.583L0.477,-0.551Z" style="fill-rule:nonzero;"/>
        </g>
        <g transform="matrix(39.8783,3.11768,-3.11768,39.8783,232.113,446.727)">
            <path d="M0.041,-0.791L0.384,-0.791L0.384,-0.632L0.247,-0.632L0.247,-0.482L0.375,-0.482L0.375,-0.332L0.247,-0.332L0.247,-0.158L0.397,-0.158L0.397,-0L0.041,-0L0.041,-0.791Z" style="fill-rule:nonzero;"/>
        </g>
        <g transform="matrix(39.9871,-1.01454,1.01454,39.9871,252.703,448.147)">
            <path d="M0.247,-0.791L0.247,-0.158L0.372,-0.158L0.372,-0L0.041,-0L0.041,-0.791L0.247,-0.791Z" style="fill-rule:nonzero;"/>
        </g>
        <g transform="matrix(39.6799,-5.05022,5.05022,39.6799,271.905,447.542)">
            <path d="M0.041,-0.791L0.389,-0.791L0.389,-0.632L0.247,-0.632L0.247,-0.482L0.374,-0.482L0.374,-0.332L0.247,-0.332L0.247,-0L0.041,-0L0.041,-0.791Z" style="fill-rule:nonzero;"/>
        </g>
        <g transform="matrix(39.0692,-8.57881,8.57881,39.0692,291.685,444.772)">
            <rect x="0.041" y="-0.791" width="0.206" height="0.791" style="fill-rule:nonzero;"/>
        </g>
        <g transform="matrix(37.95,-12.6411,12.6411,37.95,306.825,441.481)">
            <path d="M0.477,-0.551L0.286,-0.551L0.286,-0.61C0.286,-0.637 0.283,-0.655 0.278,-0.662C0.273,-0.67 0.265,-0.673 0.254,-0.673C0.242,-0.673 0.232,-0.668 0.226,-0.658C0.219,-0.648 0.216,-0.633 0.216,-0.612C0.216,-0.586 0.22,-0.566 0.227,-0.553C0.234,-0.539 0.253,-0.523 0.285,-0.504C0.377,-0.45 0.434,-0.405 0.458,-0.371C0.482,-0.336 0.494,-0.28 0.494,-0.202C0.494,-0.146 0.487,-0.104 0.474,-0.078C0.461,-0.051 0.435,-0.029 0.397,-0.01C0.36,0.008 0.316,0.017 0.266,0.017C0.211,0.017 0.164,0.006 0.125,-0.015C0.086,-0.035 0.06,-0.062 0.048,-0.094C0.036,-0.126 0.03,-0.172 0.03,-0.231L0.03,-0.283L0.221,-0.283L0.221,-0.187C0.221,-0.157 0.224,-0.138 0.229,-0.13C0.235,-0.121 0.244,-0.117 0.258,-0.117C0.271,-0.117 0.282,-0.123 0.288,-0.133C0.295,-0.144 0.298,-0.16 0.298,-0.181C0.298,-0.228 0.292,-0.258 0.279,-0.272C0.266,-0.287 0.234,-0.311 0.183,-0.344C0.132,-0.378 0.098,-0.403 0.082,-0.418C0.065,-0.433 0.051,-0.454 0.04,-0.481C0.029,-0.508 0.024,-0.543 0.024,-0.585C0.024,-0.646 0.032,-0.69 0.047,-0.718C0.063,-0.746 0.088,-0.768 0.122,-0.783C0.157,-0.799 0.198,-0.807 0.247,-0.807C0.3,-0.807 0.346,-0.799 0.384,-0.781C0.421,-0.764 0.446,-0.742 0.458,-0.716C0.47,-0.69 0.477,-0.645 0.477,-0.583L0.477,-0.551Z" style="fill-rule:nonzero;"/>
        </g>
        <g transform="matrix(35.9309,-17.5776,17.5776,35.9309,330.226,433.453)">
            <path d="M0.514,-0.791L0.514,-0L0.308,-0L0.308,-0.332L0.247,-0.332L0.247,-0L0.041,-0L0.041,-0.791L0.247,-0.791L0.247,-0.508L0.308,-0.508L0.308,-0.791L0.514,-0.791Z" style="fill-rule:nonzero;"/>
        </g>
        <g transform="matrix(31.9671,-24.0438,24.0438,31.9671,362.977,415.755)">
            <path d="M0.477,-0.551L0.286,-0.551L0.286,-0.61C0.286,-0.637 0.283,-0.655 0.278,-0.662C0.273,-0.67 0.265,-0.673 0.254,-0.673C0.242,-0.673 0.232,-0.668 0.226,-0.658C0.219,-0.648 0.216,-0.633 0.216,-0.612C0.216,-0.586 0.22,-0.566 0.227,-0.553C0.234,-0.539 0.253,-0.523 0.285,-0.504C0.377,-0.45 0.434,-0.405 0.458,-0.371C0.482,-0.336 0.494,-0.28 0.494,-0.202C0.494,-0.146 0.487,-0.104 0.474,-0.078C0.461,-0.051 0.435,-0.029 0.397,-0.01C0.36,0.008 0.316,0.017 0.266,0.017C0.211,0.017 0.164,0.006 0.125,-0.015C0.086,-0.035 0.06,-0.062 0.048,-0.094C0.036,-0.126 0.03,-0.172 0.03,-0.231L0.03,-0.283L0.221,-0.283L0.221,-0.187C0.221,-0.157 0.224,-0.138 0.229,-0.13C0.235,-0.121 0.244,-0.117 0.258,-0.117C0.271,-0.117 0.282,-0.123 0.288,-0.133C0.295,-0.144 0.298,-0.16 0.298,-0.181C0.298,-0.228 0.292,-0.258 0.279,-0.272C0.266,-0.287 0.234,-0.311 0.183,-0.344C0.132,-0.378 0.098,-0.403 0.082,-0.418C0.065,-0.433 0.051,-0.454 0.04,-0.481C0.029,-0.508 0.024,-0.543 0.024,-0.585C0.024,-0.646 0.032,-0.69 0.047,-0.718C0.063,-0.746 0.088,-0.768 0.122,-0.783C0.157,-0.799 0.198,-0.807 0.247,-0.807C0.3,-0.807 0.346,-0.799 0.384,-0.781C0.421,-0.764 0.446,-0.742 0.458,-0.716C0.47,-0.69 0.477,-0.645 0.477,-0.583L0.477,-0.551Z" style="fill-rule:nonzero;"/>
        </g>
        <g transform="matrix(28.5567,-28.0092,28.0092,28.5567,382.613,400.7)">
            <path d="M0.511,-0.328C0.511,-0.248 0.509,-0.192 0.505,-0.159C0.501,-0.126 0.49,-0.096 0.47,-0.068C0.45,-0.041 0.424,-0.02 0.39,-0.005C0.357,0.009 0.318,0.017 0.273,0.017C0.231,0.017 0.193,0.01 0.159,-0.004C0.125,-0.018 0.098,-0.039 0.078,-0.066C0.057,-0.094 0.045,-0.124 0.041,-0.157C0.037,-0.189 0.035,-0.246 0.035,-0.328L0.035,-0.463C0.035,-0.542 0.037,-0.599 0.041,-0.632C0.045,-0.665 0.056,-0.695 0.076,-0.722C0.096,-0.75 0.122,-0.771 0.156,-0.785C0.189,-0.8 0.228,-0.807 0.273,-0.807C0.315,-0.807 0.353,-0.8 0.387,-0.786C0.421,-0.773 0.448,-0.752 0.468,-0.724C0.489,-0.696 0.501,-0.666 0.505,-0.634C0.509,-0.601 0.511,-0.544 0.511,-0.463L0.511,-0.328ZM0.305,-0.587C0.305,-0.624 0.303,-0.648 0.299,-0.658C0.295,-0.668 0.287,-0.673 0.274,-0.673C0.263,-0.673 0.255,-0.669 0.249,-0.661C0.244,-0.653 0.241,-0.628 0.241,-0.587L0.241,-0.218C0.241,-0.172 0.243,-0.144 0.246,-0.133C0.25,-0.123 0.259,-0.117 0.272,-0.117C0.286,-0.117 0.295,-0.123 0.299,-0.136C0.303,-0.148 0.305,-0.178 0.305,-0.224L0.305,-0.587Z" style="fill-rule:nonzero;"/>
        </g>
        <g transform="matrix(24.9415,-31.2717,31.2717,24.9415,400.812,382.308)">
            <path d="M0.041,-0.791L0.389,-0.791L0.389,-0.632L0.247,-0.632L0.247,-0.482L0.374,-0.482L0.374,-0.332L0.247,-0.332L0.247,-0L0.041,-0L0.041,-0.791Z" style="fill-rule:nonzero;"/>
        </g>
        <g transform="matrix(21.4807,-33.7428,33.7428,21.4807,413.134,366.683)">
            <path d="M0.455,-0.791L0.455,-0.632L0.333,-0.632L0.333,-0L0.127,-0L0.127,-0.632L0.006,-0.632L0.006,-0.791L0.455,-0.791Z" style="fill-rule:nonzero;"/>
        </g>
        <g transform="matrix(15.8871,-36.7097,36.7097,15.8871,425.829,347.064)">
            <path d="M0.814,-0.791L0.723,-0L0.466,-0C0.443,-0.121 0.422,-0.259 0.404,-0.414C0.396,-0.348 0.377,-0.21 0.347,-0L0.092,-0L0,-0.791L0.2,-0.791L0.221,-0.515L0.242,-0.249C0.25,-0.386 0.269,-0.567 0.299,-0.791L0.513,-0.791C0.516,-0.767 0.523,-0.681 0.535,-0.53L0.558,-0.229C0.569,-0.421 0.588,-0.608 0.615,-0.791L0.814,-0.791Z" style="fill-rule:nonzero;"/>
        </g>
        <g transform="matrix(9.91586,-38.7515,38.7515,9.91586,439.507,313.512)">
            <path d="M0.396,-0.791L0.514,-0L0.303,-0L0.293,-0.142L0.219,-0.142L0.207,-0L-0.006,-0L0.099,-0.791L0.396,-0.791ZM0.287,-0.282C0.277,-0.372 0.266,-0.482 0.256,-0.614C0.235,-0.463 0.222,-0.352 0.217,-0.282L0.287,-0.282Z" style="fill-rule:nonzero;"/>
        </g>
        <g transform="matrix(4.78409,-39.7129,39.7129,4.78409,445.32,289.905)">
            <path d="M0.041,-0.791L0.187,-0.791C0.284,-0.791 0.349,-0.787 0.384,-0.779C0.418,-0.772 0.446,-0.753 0.468,-0.722C0.489,-0.691 0.5,-0.642 0.5,-0.575C0.5,-0.513 0.492,-0.472 0.477,-0.451C0.462,-0.43 0.432,-0.417 0.387,-0.413C0.427,-0.403 0.455,-0.389 0.469,-0.372C0.483,-0.355 0.491,-0.34 0.495,-0.325C0.498,-0.311 0.5,-0.272 0.5,-0.208L0.5,-0L0.309,-0L0.309,-0.263C0.309,-0.305 0.306,-0.331 0.299,-0.341C0.292,-0.351 0.275,-0.356 0.247,-0.356L0.247,-0L0.041,-0L0.041,-0.791ZM0.247,-0.655L0.247,-0.479C0.27,-0.479 0.286,-0.483 0.295,-0.489C0.304,-0.495 0.309,-0.516 0.309,-0.551L0.309,-0.594C0.309,-0.619 0.305,-0.636 0.296,-0.644C0.287,-0.651 0.27,-0.655 0.247,-0.655Z" style="fill-rule:nonzero;"/>
        </g>
        <g transform="matrix(-0.0634271,-39.9999,39.9999,-0.0634271,448.014,264.459)">
            <path d="M0.041,-0.791L0.384,-0.791L0.384,-0.632L0.247,-0.632L0.247,-0.482L0.375,-0.482L0.375,-0.332L0.247,-0.332L0.247,-0.158L0.397,-0.158L0.397,-0L0.041,-0L0.041,-0.791Z" style="fill-rule:nonzero;"/>
        </g>
    </g>
    <g transform="matrix(1,0,0,1,-36,-36)">
        <g transform="matrix(16.5159,-36.4311,36.4311,16.5159,105.324,199.883)">
            <path d="M0.511,-0.328C0.511,-0.248 0.509,-0.192 0.505,-0.159C0.501,-0.126 0.49,-0.096 0.47,-0.068C0.45,-0.041 0.424,-0.02 0.39,-0.005C0.357,0.009 0.318,0.017 0.273,0.017C0.231,0.017 0.193,0.01 0.159,-0.004C0.125,-0.018 0.098,-0.039 0.078,-0.066C0.057,-0.094 0.045,-0.124 0.041,-0.157C0.037,-0.189 0.035,-0.246 0.035,-0.328L0.035,-0.463C0.035,-0.542 0.037,-0.599 0.041,-0.632C0.045,-0.665 0.056,-0.695 0.076,-0.722C0.096,-0.75 0.122,-0.771 0.156,-0.785C0.189,-0.8 0.228,-0.807 0.273,-0.807C0.315,-0.807 0.353,-0.8 0.387,-0.786C0.421,-0.773 0.448,-0.752 0.468,-0.724C0.489,-0.696 0.501,-0.666 0.505,-0.634C0.509,-0.601 0.511,-0.544 0.511,-0.463L0.511,-0.328ZM0.305,-0.587C0.305,-0.624 0.303,-0.648 0.299,-0.658C0.295,-0.668 0.287,-0.673 0.274,-0.673C0.263,-0.673 0.255,-0.669 0.249,-0.661C0.244,-0.653 0.241,-0.628 0.241,-0.587L0.241,-0.218C0.241,-0.172 0.243,-0.144 0.246,-0.133C0.25,-0.123 0.259,-0.117 0.272,-0.117C0.286,-0.117 0.295,-0.123 0.299,-0.136C0.303,-0.148 0.305,-0.178 0.305,-0.224L0.305,-0.587Z" style="fill-rule:nonzero;"/>
        </g>
        <g transform="matrix(21.188,-33.9274,33.9274,21.188,114.287,180.155)">
            <path d="M0.041,-0.791L0.248,-0.791C0.304,-0.791 0.347,-0.786 0.377,-0.777C0.407,-0.769 0.43,-0.756 0.445,-0.739C0.46,-0.723 0.47,-0.703 0.476,-0.679C0.481,-0.655 0.484,-0.619 0.484,-0.569L0.484,-0.5C0.484,-0.45 0.479,-0.413 0.468,-0.39C0.458,-0.367 0.439,-0.349 0.411,-0.337C0.383,-0.325 0.347,-0.318 0.302,-0.318L0.247,-0.318L0.247,-0L0.041,-0L0.041,-0.791ZM0.247,-0.655L0.247,-0.454C0.252,-0.454 0.257,-0.454 0.262,-0.454C0.281,-0.454 0.294,-0.458 0.301,-0.468C0.308,-0.477 0.312,-0.496 0.312,-0.525L0.312,-0.59C0.312,-0.617 0.308,-0.635 0.299,-0.643C0.291,-0.651 0.273,-0.655 0.247,-0.655Z" style="fill-rule:nonzero;"/>
        </g>
        <g transform="matrix(24.9765,-31.2438,31.2438,24.9765,125.181,162.843)">
            <path d="M0.041,-0.791L0.384,-0.791L0.384,-0.632L0.247,-0.632L0.247,-0.482L0.375,-0.482L0.375,-0.332L0.247,-0.332L0.247,-0.158L0.397,-0.158L0.397,-0L0.041,-0L0.041,-0.791Z" style="fill-rule:nonzero;"/>
        </g>
        <g transform="matrix(28.4522,-28.1153,28.1153,28.4522,135.608,149.548)">
            <path d="M0.5,-0.791L0.5,-0L0.32,-0L0.213,-0.359L0.213,-0L0.041,-0L0.041,-0.791L0.213,-0.791L0.328,-0.435L0.328,-0.791L0.5,-0.791Z" style="fill-rule:nonzero;"/>
        </g>
        <g transform="matrix(33.2,-22.3106,22.3106,33.2,158.147,128.546)">
            <path d="M0.477,-0.551L0.286,-0.551L0.286,-0.61C0.286,-0.637 0.283,-0.655 0.278,-0.662C0.273,-0.67 0.265,-0.673 0.254,-0.673C0.242,-0.673 0.232,-0.668 0.226,-0.658C0.219,-0.648 0.216,-0.633 0.216,-0.612C0.216,-0.586 0.22,-0.566 0.227,-0.553C0.234,-0.539 0.253,-0.523 0.285,-0.504C0.377,-0.45 0.434,-0.405 0.458,-0.371C0.482,-0.336 0.494,-0.28 0.494,-0.202C0.494,-0.146 0.487,-0.104 0.474,-0.078C0.461,-0.051 0.435,-0.029 0.397,-0.01C0.36,0.008 0.316,0.017 0.266,0.017C0.211,0.017 0.164,0.006 0.125,-0.015C0.086,-0.035 0.06,-0.062 0.048,-0.094C0.036,-0.126 0.03,-0.172 0.03,-0.231L0.03,-0.283L0.221,-0.283L0.221,-0.187C0.221,-0.157 0.224,-0.138 0.229,-0.13C0.235,-0.121 0.244,-0.117 0.258,-0.117C0.271,-0.117 0.282,-0.123 0.288,-0.133C0.295,-0.144 0.298,-0.16 0.298,-0.181C0.298,-0.228 0.292,-0.258 0.279,-0.272C0.266,-0.287 0.234,-0.311 0.183,-0.344C0.132,-0.378 0.098,-0.403 0.082,-0.418C0.065,-0.433 0.051,-0.454 0.04,-0.481C0.029,-0.508 0.024,-0.543 0.024,-0.585C0.024,-0.646 0.032,-0.69 0.047,-0.718C0.063,-0.746 0.088,-0.768 0.122,-0.783C0.157,-0.799 0.198,-0.807 0.247,-0.807C0.3,-0.807 0.346,-0.799 0.384,-0.781C0.421,-0.764 0.446,-0.742 0.458,-0.716C0.47,-0.69 0.477,-0.645 0.477,-0.583L0.477,-0.551Z" style="fill-rule:nonzero;"/>
        </g>
        <g transform="matrix(35.8436,-17.755,17.755,35.8436,175.213,117.021)">
            <path d="M0.511,-0.328C0.511,-0.248 0.509,-0.192 0.505,-0.159C0.501,-0.126 0.49,-0.096 0.47,-0.068C0.45,-0.041 0.424,-0.02 0.39,-0.005C0.357,0.009 0.318,0.017 0.273,0.017C0.231,0.017 0.193,0.01 0.159,-0.004C0.125,-0.018 0.098,-0.039 0.078,-0.066C0.057,-0.094 0.045,-0.124 0.041,-0.157C0.037,-0.189 0.035,-0.246 0.035,-0.328L0.035,-0.463C0.035,-0.542 0.037,-0.599 0.041,-0.632C0.045,-0.665 0.056,-0.695 0.076,-0.722C0.096,-0.75 0.122,-0.771 0.156,-0.785C0.189,-0.8 0.228,-0.807 0.273,-0.807C0.315,-0.807 0.353,-0.8 0.387,-0.786C0.421,-0.773 0.448,-0.752 0.468,-0.724C0.489,-0.696 0.501,-0.666 0.505,-0.634C0.509,-0.601 0.511,-0.544 0.511,-0.463L0.511,-0.328ZM0.305,-0.587C0.305,-0.624 0.303,-0.648 0.299,-0.658C0.295,-0.668 0.287,-0.673 0.274,-0.673C0.263,-0.673 0.255,-0.669 0.249,-0.661C0.244,-0.653 0.241,-0.628 0.241,-0.587L0.241,-0.218C0.241,-0.172 0.243,-0.144 0.246,-0.133C0.25,-0.123 0.259,-0.117 0.272,-0.117C0.286,-0.117 0.295,-0.123 0.299,-0.136C0.303,-0.148 0.305,-0.178 0.305,-0.224L0.305,-0.587Z" style="fill-rule:nonzero;"/>
        </g>
        <g transform="matrix(37.9107,-12.7584,12.7584,37.9107,194.525,107.432)">
            <path d="M0.508,-0.791L0.508,-0.262C0.508,-0.202 0.506,-0.16 0.502,-0.136C0.499,-0.112 0.487,-0.087 0.468,-0.061C0.449,-0.036 0.423,-0.016 0.392,-0.003C0.36,0.01 0.323,0.017 0.281,0.017C0.234,0.017 0.192,0.009 0.156,-0.007C0.12,-0.022 0.093,-0.043 0.075,-0.068C0.057,-0.093 0.046,-0.119 0.043,-0.147C0.04,-0.175 0.038,-0.234 0.038,-0.323L0.038,-0.791L0.244,-0.791L0.244,-0.198C0.244,-0.163 0.246,-0.141 0.249,-0.132C0.253,-0.122 0.261,-0.117 0.272,-0.117C0.285,-0.117 0.293,-0.122 0.297,-0.133C0.301,-0.144 0.303,-0.169 0.303,-0.208L0.303,-0.791L0.508,-0.791Z" style="fill-rule:nonzero;"/>
        </g>
        <g transform="matrix(39.2868,-7.51992,7.51992,39.2868,215.064,100.515)">
            <path d="M0.041,-0.791L0.187,-0.791C0.284,-0.791 0.349,-0.787 0.384,-0.779C0.418,-0.772 0.446,-0.753 0.468,-0.722C0.489,-0.691 0.5,-0.642 0.5,-0.575C0.5,-0.513 0.492,-0.472 0.477,-0.451C0.462,-0.43 0.432,-0.417 0.387,-0.413C0.427,-0.403 0.455,-0.389 0.469,-0.372C0.483,-0.355 0.491,-0.34 0.495,-0.325C0.498,-0.311 0.5,-0.272 0.5,-0.208L0.5,-0L0.309,-0L0.309,-0.263C0.309,-0.305 0.306,-0.331 0.299,-0.341C0.292,-0.351 0.275,-0.356 0.247,-0.356L0.247,-0L0.041,-0L0.041,-0.791ZM0.247,-0.655L0.247,-0.479C0.27,-0.479 0.286,-0.483 0.295,-0.489C0.304,-0.495 0.309,-0.516 0.309,-0.551L0.309,-0.594C0.309,-0.619 0.305,-0.636 0.296,-0.644C0.287,-0.651 0.27,-0.655 0.247,-0.655Z" style="fill-rule:nonzero;"/>
        </g>
        <g transform="matrix(39.9402,-2.18596,2.18596,39.9402,235.981,96.4721)">
            <path d="M0.521,-0.446L0.315,-0.446L0.315,-0.583C0.315,-0.624 0.313,-0.649 0.309,-0.658C0.304,-0.668 0.295,-0.673 0.28,-0.673C0.263,-0.673 0.252,-0.667 0.248,-0.655C0.243,-0.643 0.241,-0.617 0.241,-0.577L0.241,-0.21C0.241,-0.172 0.243,-0.146 0.248,-0.135C0.252,-0.123 0.262,-0.117 0.278,-0.117C0.294,-0.117 0.304,-0.123 0.308,-0.135C0.313,-0.146 0.315,-0.174 0.315,-0.217L0.315,-0.316L0.521,-0.316L0.521,-0.286C0.521,-0.204 0.515,-0.146 0.504,-0.112C0.492,-0.078 0.467,-0.048 0.427,-0.022C0.387,0.004 0.339,0.017 0.281,0.017C0.221,0.017 0.171,0.006 0.132,-0.016C0.093,-0.038 0.067,-0.068 0.054,-0.107C0.042,-0.145 0.035,-0.203 0.035,-0.281L0.035,-0.512C0.035,-0.569 0.037,-0.611 0.041,-0.64C0.045,-0.668 0.057,-0.696 0.076,-0.722C0.095,-0.749 0.122,-0.769 0.156,-0.784C0.191,-0.8 0.23,-0.807 0.275,-0.807C0.335,-0.807 0.385,-0.795 0.425,-0.772C0.464,-0.749 0.49,-0.719 0.502,-0.684C0.515,-0.649 0.521,-0.595 0.521,-0.521L0.521,-0.446Z" style="fill-rule:nonzero;"/>
        </g>
        <g transform="matrix(39.9083,2.7074,-2.7074,39.9083,258.273,95.4)">
            <path d="M0.041,-0.791L0.384,-0.791L0.384,-0.632L0.247,-0.632L0.247,-0.482L0.375,-0.482L0.375,-0.332L0.247,-0.332L0.247,-0.158L0.397,-0.158L0.397,-0L0.041,-0L0.041,-0.791Z" style="fill-rule:nonzero;"/>
        </g>
        <g transform="matrix(38.8426,9.55279,-9.55279,38.8426,284.34,97.7753)">
            <path d="M0.477,-0.551L0.286,-0.551L0.286,-0.61C0.286,-0.637 0.283,-0.655 0.278,-0.662C0.273,-0.67 0.265,-0.673 0.254,-0.673C0.242,-0.673 0.232,-0.668 0.226,-0.658C0.219,-0.648 0.216,-0.633 0.216,-0.612C0.216,-0.586 0.22,-0.566 0.227,-0.553C0.234,-0.539 0.253,-0.523 0.285,-0.504C0.377,-0.45 0.434,-0.405 0.458,-0.371C0.482,-0.336 0.494,-0.28 0.494,-0.202C0.494,-0.146 0.487,-0.104 0.474,-0.078C0.461,-0.051 0.435,-0.029 0.397,-0.01C0.36,0.008 0.316,0.017 0.266,0.017C0.211,0.017 0.164,0.006 0.125,-0.015C0.086,-0.035 0.06,-0.062 0.048,-0.094C0.036,-0.126 0.03,-0.172 0.03,-0.231L0.03,-0.283L0.221,-0.283L0.221,-0.187C0.221,-0.157 0.224,-0.138 0.229,-0.13C0.235,-0.121 0.244,-0.117 0.258,-0.117C0.271,-0.117 0.282,-0.123 0.288,-0.133C0.295,-0.144 0.298,-0.16 0.298,-0.181C0.298,-0.228 0.292,-0.258 0.279,-0.272C0.266,-0.287 0.234,-0.311 0.183,-0.344C0.132,-0.378 0.098,-0.403 0.082,-0.418C0.065,-0.433 0.051,-0.454 0.04,-0.481C0.029,-0.508 0.024,-0.543 0.024,-0.585C0.024,-0.646 0.032,-0.69 0.047,-0.718C0.063,-0.746 0.088,-0.768 0.122,-0.783C0.157,-0.799 0.198,-0.807 0.247,-0.807C0.3,-0.807 0.346,-0.799 0.384,-0.781C0.421,-0.764 0.446,-0.742 0.458,-0.716C0.47,-0.69 0.477,-0.645 0.477,-0.583L0.477,-0.551Z" style="fill-rule:nonzero;"/>
        </g>
        <g transform="matrix(37.2414,14.5972,-14.5972,37.2414,304.259,102.622)">
            <path d="M0.511,-0.328C0.511,-0.248 0.509,-0.192 0.505,-0.159C0.501,-0.126 0.49,-0.096 0.47,-0.068C0.45,-0.041 0.424,-0.02 0.39,-0.005C0.357,0.009 0.318,0.017 0.273,0.017C0.231,0.017 0.193,0.01 0.159,-0.004C0.125,-0.018 0.098,-0.039 0.078,-0.066C0.057,-0.094 0.045,-0.124 0.041,-0.157C0.037,-0.189 0.035,-0.246 0.035,-0.328L0.035,-0.463C0.035,-0.542 0.037,-0.599 0.041,-0.632C0.045,-0.665 0.056,-0.695 0.076,-0.722C0.096,-0.75 0.122,-0.771 0.156,-0.785C0.189,-0.8 0.228,-0.807 0.273,-0.807C0.315,-0.807 0.353,-0.8 0.387,-0.786C0.421,-0.773 0.448,-0.752 0.468,-0.724C0.489,-0.696 0.501,-0.666 0.505,-0.634C0.509,-0.601 0.511,-0.544 0.511,-0.463L0.511,-0.328ZM0.305,-0.587C0.305,-0.624 0.303,-0.648 0.299,-0.658C0.295,-0.668 0.287,-0.673 0.274,-0.673C0.263,-0.673 0.255,-0.669 0.249,-0.661C0.244,-0.653 0.241,-0.628 0.241,-0.587L0.241,-0.218C0.241,-0.172 0.243,-0.144 0.246,-0.133C0.25,-0.123 0.259,-0.117 0.272,-0.117C0.286,-0.117 0.295,-0.123 0.299,-0.136C0.303,-0.148 0.305,-0.178 0.305,-0.224L0.305,-0.587Z" style="fill-rule:nonzero;"/>
        </g>
        <g transform="matrix(35.1588,19.0751,-19.0751,35.1588,324.718,110.809)">
            <path d="M0.041,-0.791L0.389,-0.791L0.389,-0.632L0.247,-0.632L0.247,-0.482L0.374,-0.482L0.374,-0.332L0.247,-0.332L0.247,-0L0.041,-0L0.041,-0.791Z" style="fill-rule:nonzero;"/>
        </g>
        <g transform="matrix(32.9298,22.7075,-22.7075,32.9298,339.269,118.626)">
            <path d="M0.455,-0.791L0.455,-0.632L0.333,-0.632L0.333,-0L0.127,-0L0.127,-0.632L0.006,-0.632L0.006,-0.791L0.455,-0.791Z" style="fill-rule:nonzero;"/>
        </g>
        <g transform="matrix(28.9602,27.5917,-27.5917,28.9602,354.784,128.651)">
            <path d="M0.814,-0.791L0.723,-0L0.466,-0C0.443,-0.121 0.422,-0.259 0.404,-0.414C0.396,-0.348 0.377,-0.21 0.347,-0L0.092,-0L0,-0.791L0.2,-0.791L0.221,-0.515L0.242,-0.249C0.25,-0.386 0.269,-0.567 0.299,-0.791L0.513,-0.791C0.516,-0.767 0.523,-0.681 0.535,-0.53L0.558,-0.229C0.569,-0.421 0.588,-0.608 0.615,-0.791L0.814,-0.791Z" style="fill-rule:nonzero;"/>
        </g>
        <g transform="matrix(24.3414,31.7411,-31.7411,24.3414,377.17,150.497)">
            <path d="M0.396,-0.791L0.514,-0L0.303,-0L0.293,-0.142L0.219,-0.142L0.207,-0L-0.006,-0L0.099,-0.791L0.396,-0.791ZM0.287,-0.282C0.277,-0.372 0.266,-0.482 0.256,-0.614C0.235,-0.463 0.222,-0.352 0.217,-0.282L0.287,-0.282Z" style="fill-rule:nonzero;"/>
        </g>
        <g transform="matrix(20.025,34.6266,-34.6266,20.025,389.539,166.549)">
            <path d="M0.041,-0.791L0.187,-0.791C0.284,-0.791 0.349,-0.787 0.384,-0.779C0.418,-0.772 0.446,-0.753 0.468,-0.722C0.489,-0.691 0.5,-0.642 0.5,-0.575C0.5,-0.513 0.492,-0.472 0.477,-0.451C0.462,-0.43 0.432,-0.417 0.387,-0.413C0.427,-0.403 0.455,-0.389 0.469,-0.372C0.483,-0.355 0.491,-0.34 0.495,-0.325C0.498,-0.311 0.5,-0.272 0.5,-0.208L0.5,-0L0.309,-0L0.309,-0.263C0.309,-0.305 0.306,-0.331 0.299,-0.341C0.292,-0.351 0.275,-0.356 0.247,-0.356L0.247,-0L0.041,-0L0.041,-0.791ZM0.247,-0.655L0.247,-0.479C0.27,-0.479 0.286,-0.483 0.295,-0.489C0.304,-0.495 0.309,-0.516 0.309,-0.551L0.309,-0.594C0.309,-0.619 0.305,-0.636 0.296,-0.644C0.287,-0.651 0.27,-0.655 0.247,-0.655Z" style="fill-rule:nonzero;"/>
        </g>
        <g transform="matrix(15.6338,36.8182,-36.8182,15.6338,400.283,185.38)">
            <path d="M0.041,-0.791L0.384,-0.791L0.384,-0.632L0.247,-0.632L0.247,-0.482L0.375,-0.482L0.375,-0.332L0.247,-0.332L0.247,-0.158L0.397,-0.158L0.397,-0L0.041,-0L0.041,-0.791Z" style="fill-rule:nonzero;"/>
        </g>
    </g>
    <path d="M184.955,228.867C181.327,219.16 174.969,211.953 165.882,207.246C156.818,202.6 147.834,201.941 138.931,205.269C137.447,205.823 137.167,207.337 138.091,209.81C139.223,212.84 140.501,214.089 141.923,213.557C146.627,213.702 150.745,216.708 154.277,222.575C155.958,225.188 158.162,230.143 160.888,237.438C165.001,248.444 167.118,255.615 167.237,258.953C167.432,264.376 165.55,268.391 161.592,270.998C160.618,271.785 160.466,273.075 161.136,274.868C161.783,276.599 162.694,277.245 163.868,276.806C173.328,273.271 180.149,266.917 184.331,257.744C188.513,248.571 188.721,238.945 184.955,228.867ZM154.841,276.691C154.541,275.888 154.144,275.296 153.65,274.917C152.932,274.692 152.395,274.576 152.04,274.568C148.362,275.097 145.11,274.127 142.286,271.66C139.268,269.053 136.096,263.298 132.768,254.395L128.817,243.822C126.46,237.515 125.129,232.728 124.824,229.46C124.673,226.416 125.054,223.948 125.968,222.057C126.471,220.952 127.404,219.864 128.764,218.792C129.963,217.851 130.678,217.125 130.911,216.616C131.112,215.836 131.017,214.92 130.624,213.869C130.208,212.756 129.61,211.817 128.831,211.051C127.959,210.038 127.029,209.717 126.039,210.086C117.074,213.437 110.725,219.826 106.99,229.254C103.217,238.768 103.145,248.378 106.772,258.085C110.469,267.978 116.823,275.08 125.834,279.394C134.975,283.869 144.462,284.27 154.292,280.596C155.467,280.157 155.65,278.855 154.841,276.691Z" style="fill-rule:nonzero;"/>
    <path d="M242.304,166.531L236.461,168.714C235.717,171.247 234.51,172.826 232.84,173.45C231.851,173.82 230.152,173.891 227.742,173.664C225.332,173.437 223.539,173.544 222.364,173.983L221.066,174.468C220.332,174.954 220.38,176.31 221.212,178.535C222.252,181.318 223.452,182.455 224.812,181.946C228.398,180.606 232.627,181.457 237.498,184.498C237.838,184.653 238.841,185.829 240.507,188.025C241.934,189.957 243.207,191.102 244.327,191.459L250.75,188.847L242.304,166.531ZM263.863,212.907C261.922,207.713 258.25,203.731 252.845,200.959C248.954,199.031 245.088,198.115 241.249,198.211C238.366,198.795 235.724,199.36 233.321,199.906C230.917,200.451 228.703,201.032 226.679,201.648C220.643,203.41 215.673,202.837 211.767,199.928C210.694,199.131 209.973,198.238 209.603,197.248C208.864,195.27 209.02,193.238 210.073,191.154C210.964,189.2 212.318,187.637 214.134,186.465C215.171,185.655 215.284,184.168 214.476,182.004C214.129,181.077 213.608,180.25 212.914,179.523C212.042,178.51 211.204,178.153 210.401,178.454C204.403,180.695 200.103,184.839 197.501,190.885C194.983,196.969 194.845,203.01 197.086,209.008C199.281,214.881 203.537,219.104 209.854,221.676C215.452,224.023 221.782,224.652 228.844,223.563C235.883,222.412 240.125,221.884 241.569,221.978C246.104,222.045 248.984,223.717 250.208,226.994C250.832,228.663 250.599,230.301 249.508,231.907C248.416,233.512 246.622,235.028 244.126,236.455C243.283,236.84 242.638,237.187 242.189,237.495C241.254,238.197 241.294,239.908 242.311,242.629C243.374,245.473 244.493,246.676 245.667,246.237C252.716,243.602 258.136,239.252 261.928,233.184C265.806,226.591 266.451,219.832 263.863,212.907ZM214.54,257.975L220.383,255.791C221.128,253.258 222.335,251.68 224.004,251.056C224.931,250.709 226.6,250.649 229.01,250.876C231.42,251.103 233.244,250.985 234.48,250.523C235.098,250.292 235.489,250.111 235.651,249.98C236.471,249.533 236.464,248.196 235.632,245.97C234.593,243.188 233.393,242.051 232.032,242.559C228.323,243.946 224.063,243.107 219.254,240.042C218.829,239.848 217.857,238.661 216.338,236.481C214.888,234.486 213.603,233.311 212.483,232.954L205.898,235.415L214.54,257.975Z" style="fill-rule:nonzero;"/>
    <path d="M316.313,138.873L310.47,141.056C309.725,143.589 308.518,145.168 306.849,145.792C305.86,146.161 304.16,146.233 301.75,146.006C299.34,145.779 297.548,145.886 296.373,146.325L295.075,146.81C294.34,147.296 294.389,148.652 295.221,150.877C296.26,153.66 297.46,154.797 298.821,154.288C302.407,152.948 306.635,153.799 311.507,156.84C311.846,156.995 312.849,158.171 314.515,160.366C315.942,162.299 317.216,163.444 318.336,163.801L324.758,161.189L316.313,138.873ZM337.872,185.249C335.931,180.055 332.258,176.073 326.854,173.301C322.962,171.373 319.097,170.457 315.257,170.553C312.375,171.137 309.732,171.702 307.329,172.248C304.926,172.793 302.712,173.374 300.687,173.99C294.652,175.752 289.681,175.179 285.776,172.27C284.703,171.473 283.981,170.58 283.612,169.59C282.872,167.612 283.029,165.58 284.082,163.496C284.973,161.542 286.326,159.979 288.143,158.807C289.179,157.997 289.293,156.51 288.484,154.346C288.138,153.419 287.617,152.592 286.923,151.865C286.051,150.852 285.213,150.495 284.409,150.796C278.412,153.037 274.112,157.181 271.509,163.227C268.992,169.311 268.854,175.352 271.095,181.35C273.29,187.223 277.546,191.446 283.862,194.018C289.46,196.365 295.791,196.994 302.853,195.905C309.892,194.754 314.133,194.226 315.578,194.32C320.113,194.387 322.992,196.059 324.217,199.336C324.841,201.005 324.607,202.643 323.516,204.249C322.425,205.854 320.631,207.37 318.134,208.797C317.292,209.182 316.646,209.529 316.198,209.837C315.262,210.539 315.303,212.25 316.32,214.971C317.382,217.815 318.501,219.018 319.676,218.579C326.724,215.944 332.145,211.593 335.937,205.526C339.815,198.933 340.46,192.174 337.872,185.249ZM288.549,230.317L294.392,228.133C295.136,225.6 296.343,224.022 298.013,223.398C298.94,223.051 300.609,222.991 303.019,223.218C305.429,223.445 307.252,223.327 308.489,222.865C309.107,222.634 309.497,222.453 309.66,222.322C310.479,221.875 310.473,220.538 309.641,218.312C308.601,215.53 307.401,214.393 306.041,214.901C302.331,216.288 298.072,215.449 293.262,212.384C292.838,212.19 291.866,211.003 290.346,208.823C288.896,206.828 287.611,205.653 286.491,205.296L279.907,207.757L288.549,230.317Z" style="fill-rule:nonzero;"/>
    <path d="M394.606,195.569C388.976,196.699 383.488,193.046 382.359,187.416C381.229,181.786 384.882,176.298 390.512,175.168C396.142,174.038 401.63,177.692 402.76,183.321C403.89,188.951 400.236,194.439 394.606,195.569Z"/>
    <path d="M49.46,175.274C55.091,176.4 58.748,181.886 57.621,187.517C56.495,193.147 51.009,196.804 45.378,195.678C39.748,194.551 36.091,189.066 37.217,183.435C38.344,177.804 43.83,174.148 49.46,175.274Z"/>
</svg>
