<?xml version="1.0" encoding="UTF-8" standalone="no"?>
<!DOCTYPE svg PUBLIC "-//W3C//DTD SVG 1.1//EN" "http://www.w3.org/Graphics/SVG/1.1/DTD/svg11.dtd">
<svg width="100%" height="100%" viewBox="0 0 1200 1800" version="1.1" xmlns="http://www.w3.org/2000/svg" xmlns:xlink="http://www.w3.org/1999/xlink" xml:space="preserve" xmlns:serif="http://www.serif.com/" style="fill-rule:evenodd;clip-rule:evenodd;stroke-linejoin:round;stroke-miterlimit:2;">
    <path d="M765.354,498.425C778.392,498.425 788.976,509.01 788.976,522.047C788.976,535.085 778.392,545.669 765.354,545.669C752.317,545.669 741.732,535.085 741.732,522.047C741.732,509.01 752.317,498.425 765.354,498.425ZM765.354,616.535C778.392,616.535 788.976,627.12 788.976,640.157C788.976,653.195 778.392,663.78 765.354,663.78C752.317,663.78 741.732,653.195 741.732,640.157C741.732,627.12 752.317,616.535 765.354,616.535ZM765.354,734.646C778.392,734.646 788.976,745.23 788.976,758.268C788.976,771.305 778.392,781.89 765.354,781.89C752.317,781.89 741.732,771.305 741.732,758.268C741.732,745.23 752.317,734.646 765.354,734.646ZM366.568,212.172L77.526,212.172L77.526,1682.32L1122.47,1682.32L1122.47,1443.31C1122.47,1431.81 1131.81,1422.47 1143.31,1422.47C1154.81,1422.47 1164.14,1431.81 1164.14,1443.31L1164.14,1703.15C1164.14,1714.66 1154.81,1723.98 1143.31,1723.98L56.693,1723.98C45.187,1723.98 35.86,1714.66 35.86,1703.15L35.86,191.339C35.86,179.833 45.187,170.505 56.693,170.505L366.568,170.505L366.568,144.094C366.568,132.589 375.896,123.261 387.402,123.261L425.623,123.261L425.623,120.472C425.623,95.937 445.543,76.017 470.079,76.017L706.299,76.017C730.835,76.017 750.755,95.937 750.755,120.472L750.755,123.261L788.976,123.261C800.482,123.261 809.81,132.589 809.81,144.094L809.81,170.505L1143.31,170.505C1154.81,170.505 1164.14,179.833 1164.14,191.339L1164.14,947.244C1164.14,958.742 1154.81,968.077 1143.31,968.077C1131.81,968.077 1122.47,958.742 1122.47,947.244C1122.47,947.244 1122.47,333.849 1122.47,212.172L809.81,212.172L809.81,264.993L1048.82,264.993C1060.33,264.993 1069.65,274.321 1069.65,285.827L1069.65,1608.66C1069.65,1620.17 1060.33,1629.5 1048.82,1629.5L151.181,1629.5C139.675,1629.5 130.348,1620.17 130.348,1608.66L130.348,758.268C130.348,746.769 139.683,737.434 151.181,737.434C162.679,737.434 172.014,746.769 172.014,758.268L172.014,1587.83L1027.99,1587.83L1027.99,306.66L809.81,306.66L809.81,333.071C809.81,344.577 800.482,353.904 788.976,353.904L387.402,353.904C375.896,353.904 366.568,344.577 366.568,333.071L366.568,306.66L172.014,306.66L172.014,592.913C172.014,604.412 162.679,613.747 151.181,613.747C139.683,613.747 130.348,604.412 130.348,592.913L130.348,285.827C130.348,274.321 139.675,264.993 151.181,264.993L366.568,264.993L366.568,212.172ZM768.143,191.339L768.143,164.928L729.921,164.928C718.415,164.928 709.088,155.6 709.088,144.094L709.088,120.472C709.088,118.933 707.838,117.684 706.299,117.684L470.079,117.684C468.54,117.684 467.29,118.933 467.29,120.472L467.29,144.094C467.29,155.6 457.963,164.928 446.457,164.928C446.457,164.928 408.235,164.928 408.235,164.928L408.235,285.827L408.235,312.238C408.235,312.238 768.143,312.238 768.143,312.238L768.143,191.339ZM1164.14,1372.44C1164.14,1383.94 1154.81,1393.27 1143.31,1393.27C1131.81,1393.27 1122.47,1383.94 1122.47,1372.44L1122.47,1325.2C1122.47,1313.7 1131.81,1304.36 1143.31,1304.36C1154.81,1304.36 1164.14,1313.7 1164.14,1325.2L1164.14,1372.44ZM1164.14,1230.71C1164.14,1242.21 1154.81,1251.54 1143.31,1251.54C1131.81,1251.54 1122.47,1242.21 1122.47,1230.71L1122.47,1183.46C1122.47,1171.97 1131.81,1162.63 1143.31,1162.63C1154.81,1162.63 1164.14,1171.97 1164.14,1183.46L1164.14,1230.71ZM1164.14,1088.98C1164.14,1100.48 1154.81,1109.81 1143.31,1109.81C1131.81,1109.81 1122.47,1100.48 1122.47,1088.98L1122.47,1041.73C1122.47,1030.23 1131.81,1020.9 1143.31,1020.9C1154.81,1020.9 1164.14,1030.23 1164.14,1041.73L1164.14,1088.98ZM836.22,779.101C824.722,779.101 815.387,769.766 815.387,758.268C815.387,746.769 824.722,737.434 836.22,737.434L954.331,737.434C965.829,737.434 975.164,746.769 975.164,758.268C975.164,769.766 965.829,779.101 954.331,779.101L836.22,779.101ZM836.22,660.991C824.722,660.991 815.387,651.656 815.387,640.157C815.387,628.659 824.722,619.324 836.22,619.324L954.331,619.324C965.829,619.324 975.164,628.659 975.164,640.157C975.164,651.656 965.829,660.991 954.331,660.991L836.22,660.991ZM836.22,542.881C824.722,542.881 815.387,533.545 815.387,522.047C815.387,510.549 824.722,501.214 836.22,501.214L954.331,501.214C965.829,501.214 975.164,510.549 975.164,522.047C975.164,533.545 965.829,542.881 954.331,542.881L836.22,542.881ZM668.077,947.244L668.077,1018.11C668.077,1029.62 658.75,1038.94 647.244,1038.94L245.669,1038.94C234.163,1038.94 224.836,1029.62 224.836,1018.11L224.836,947.244C224.836,935.738 234.163,926.411 245.669,926.411L647.244,926.411C658.75,926.411 668.077,935.738 668.077,947.244ZM626.411,968.077L266.503,968.077L266.503,997.277C335.674,997.277 557.239,997.277 626.411,997.277L626.411,968.077ZM668.077,1112.6L668.077,1183.46C668.077,1194.97 658.75,1204.3 647.244,1204.3L245.669,1204.3C234.163,1204.3 224.836,1194.97 224.836,1183.46L224.836,1112.6C224.836,1101.09 234.163,1091.77 245.669,1091.77L647.244,1091.77C658.75,1091.77 668.077,1101.09 668.077,1112.6ZM626.411,1133.43C626.411,1133.43 266.503,1133.43 266.503,1133.43L266.503,1162.63C346.08,1162.63 626.411,1162.63 626.411,1162.63L626.411,1133.43ZM975.164,947.244L975.164,1183.46C975.164,1194.97 965.837,1204.3 954.331,1204.3L741.732,1204.3C730.226,1204.3 720.899,1194.97 720.899,1183.46L720.899,947.244C720.899,935.738 730.226,926.411 741.732,926.411L954.331,926.411C965.837,926.411 975.164,935.738 975.164,947.244ZM933.497,968.077L762.566,968.077C762.566,968.077 762.566,1162.63 762.566,1162.63C762.566,1162.63 933.497,1162.63 933.497,1162.63L933.497,968.077ZM787.349,1085.71C778.196,1078.75 776.415,1065.67 783.374,1056.52C790.333,1047.37 803.414,1045.59 812.567,1052.55C812.567,1052.55 837.913,1071.82 837.913,1071.82L879.521,1017.09C886.48,1007.94 899.561,1006.16 908.714,1013.12C917.867,1020.08 919.648,1033.16 912.689,1042.31L858.472,1113.62C851.508,1122.78 838.438,1124.56 829.278,1117.59L787.349,1085.71ZM975.164,1277.95L975.164,1348.82C975.164,1360.33 965.837,1369.65 954.331,1369.65L245.669,1369.65C234.163,1369.65 224.836,1360.33 224.836,1348.82L224.836,1277.95C224.836,1266.45 234.163,1257.12 245.669,1257.12L954.331,1257.12C965.837,1257.12 975.164,1266.45 975.164,1277.95ZM933.497,1298.79C933.497,1298.79 381.497,1298.79 266.503,1298.79C266.503,1298.79 266.503,1327.99 266.503,1327.99C266.503,1327.99 933.497,1327.99 933.497,1327.99L933.497,1298.79ZM975.164,1443.31L975.164,1514.17C975.164,1525.68 965.837,1535.01 954.331,1535.01L245.669,1535.01C234.163,1535.01 224.836,1525.68 224.836,1514.17L224.836,1443.31C224.836,1431.8 234.163,1422.47 245.669,1422.47L954.331,1422.47C965.837,1422.47 975.164,1431.8 975.164,1443.31ZM933.497,1464.14C933.497,1464.14 266.503,1464.14 266.503,1464.14C266.503,1464.14 266.503,1493.34 266.503,1493.34C370.197,1493.34 829.803,1493.34 933.497,1493.34L933.497,1464.14Z"/>
    <path d="M576.454,638.835C593.265,654.236 606.295,683.33 595.401,710.875C583.11,741.968 550.52,749.122 544.106,750.229C540.033,750.931 537.467,751.179 535.269,751.179C533.54,751.179 532.03,751.026 530.207,750.8C528.38,751.026 526.87,751.179 525.14,751.179C522.942,751.179 520.376,750.931 516.304,750.229C509.889,749.122 477.3,741.968 465.008,710.874C454.099,683.285 467.19,654.138 484.044,638.752C486.637,636.387 493.183,631.56 500.853,628.548C506.137,626.474 511.943,625.278 517.385,626.169C518.39,626.334 519.505,626.581 520.679,626.895C513.204,602.195 494.077,582.134 460.785,563.311C460.6,563.382 460.41,563.446 460.215,563.501C460.008,563.558 459.803,563.591 459.602,563.615C459.279,563.772 458.942,563.907 458.584,564.014L458.579,564.015C457.647,564.29 456.588,564.57 455.431,564.837C428.943,581.593 414.959,597.203 401.243,626.157C406.672,625.292 412.451,626.488 417.71,628.553C425.379,631.564 431.919,636.388 434.509,638.752C451.365,654.139 464.452,683.283 453.547,710.874C441.256,741.967 408.666,749.121 402.252,750.228C398.179,750.93 395.613,751.178 393.415,751.178C391.686,751.178 390.176,751.026 388.353,750.799C386.526,751.026 385.016,751.178 383.286,751.178C381.088,751.178 378.522,750.93 374.45,750.228C368.035,749.121 335.446,741.967 323.154,710.874C312.249,683.284 325.34,654.14 342.199,638.758C344.788,636.393 351.328,631.565 358.999,628.553C364.282,626.479 370.089,625.283 375.537,626.174C378.168,626.604 381.546,627.605 384.784,628.907C397.718,599.357 410.389,581.339 430.844,565.209C427.349,564.494 423.712,563.4 419.997,561.8C399.361,552.912 391.176,534.528 389.158,529.1C388.66,527.764 388.608,526.381 388.914,525.103C389.197,522.632 390.789,520.396 393.268,519.431C397.587,517.747 420.193,510.086 441.836,523.597C448.89,528.004 453.926,533.5 457.493,538.787C462.231,529.438 470.289,518.165 483.702,509.789C513.194,491.37 544.072,501.829 549.965,504.119C552.552,505.124 554.191,507.512 554.368,510.105C554.68,511.394 554.634,512.782 554.139,514.122L554.137,514.125C551.38,521.543 540.189,546.685 511.989,558.83C503.853,562.333 495.974,564.079 488.754,564.739C514.403,583.29 529.549,604.033 535.419,628.277C538.133,627.285 540.843,626.534 543.034,626.173L543.037,626.173C548.492,625.283 554.299,626.478 559.58,628.553C567.248,631.564 573.782,636.392 576.373,638.757C576.401,638.783 576.427,638.808 576.454,638.835ZM574.571,640.274C574.425,639.188 574.2,638.197 573.869,638.34C573.46,638.518 573.197,638.745 573.044,639.002C573.637,639.47 574.149,639.899 574.571,640.274ZM449.114,551.938C446.595,546.693 442.148,540.131 434.489,535.349C423.641,528.574 412.189,529.12 405.089,530.48C408.463,536.398 414.733,544.447 425.47,549.071C434.587,552.997 443.252,552.835 449.114,551.938ZM491.041,521.541C477.851,529.779 471.059,541.526 467.703,549.715C476.816,551.679 491.11,552.731 506.507,546.1C524.645,538.287 534.208,523.904 538.602,515.09C528.706,512.631 509.3,510.14 491.041,521.541ZM531.278,733.888L531.975,733.974C534.893,734.336 535.992,734.462 541.227,733.559C541.473,733.516 541.77,733.462 542.118,733.393C545.824,731.966 550.805,729.23 554.936,724.062L554.94,724.057C555.654,723.169 556.321,722.227 556.928,721.258C558.368,718.958 560.939,717.791 563.471,718.036C561.456,716.469 560.386,713.845 560.934,711.183C561.223,709.756 561.412,708.318 561.491,706.908C561.703,703.096 564.982,700.194 568.778,700.377C568.784,700.377 568.79,700.377 568.795,700.378C572.612,700.59 575.538,703.859 575.325,707.682C575.21,709.756 574.935,711.862 574.511,713.943C574.505,713.97 574.5,713.996 574.494,714.022C576.504,711.288 578.273,708.183 579.667,704.655C588.882,681.35 574.04,659.54 564.961,651.252C562.623,649.119 558.091,646.169 553.542,644.352C550.757,643.24 547.978,642.513 545.762,642.871C542.08,643.475 536.912,645.756 535.848,646.707C535.843,646.712 535.838,646.716 535.833,646.721C535.742,646.801 535.573,646.922 535.493,646.979C535.283,647.148 535.067,647.303 534.844,647.448C534.613,647.603 534.378,647.745 534.136,647.874L534.128,647.878C533.891,648.002 533.649,648.11 533.404,648.21C533.399,648.212 533.395,648.214 533.39,648.216C533.124,648.323 532.862,648.422 532.587,648.501C532.349,648.573 532.108,648.625 531.866,648.675C531.852,648.677 531.838,648.68 531.824,648.683C531.546,648.734 531.27,648.781 530.986,648.806C530.978,648.807 530.971,648.808 530.964,648.808C530.717,648.828 530.473,648.837 530.225,648.837C529.946,648.837 529.666,648.831 529.386,648.803C529.123,648.779 528.866,648.736 528.605,648.685C528.599,648.684 528.592,648.683 528.586,648.681C528.324,648.628 528.066,648.57 527.807,648.494C527.551,648.419 527.297,648.328 527.049,648.227C526.782,648.121 526.515,648.002 526.256,647.864C526.025,647.741 525.802,647.607 525.579,647.46C525.575,647.457 525.571,647.455 525.567,647.452C525.339,647.3 525.117,647.142 524.902,646.968C524.823,646.912 524.666,646.799 524.578,646.721C524.573,646.716 524.568,646.712 524.563,646.708C523.499,645.756 518.332,643.474 514.646,642.871L514.644,642.87C512.431,642.506 509.653,643.233 506.87,644.344C502.32,646.161 497.787,649.117 495.45,651.252C486.37,659.542 471.529,681.35 480.741,704.656C489.763,727.477 514.352,732.725 519.182,733.559C524.416,734.462 525.507,734.34 528.432,733.974L529.17,733.882C529.189,733.88 529.208,733.878 529.227,733.876C529.287,733.87 529.374,733.867 529.445,733.865C529.7,733.846 529.958,733.849 530.215,733.849C530.474,733.849 530.735,733.846 530.992,733.867C531.085,733.871 531.194,733.877 531.278,733.888ZM570.144,719.054C569.383,719.338 568.566,719.491 567.726,719.491C567.501,719.491 567.275,719.48 567.047,719.458C567.539,719.838 567.968,720.275 568.33,720.753C568.943,720.209 569.549,719.643 570.144,719.054ZM389.425,733.89L390.121,733.976C393.041,734.338 394.139,734.464 399.374,733.561C404.203,732.727 428.793,727.479 437.814,704.658C447.029,681.35 432.186,659.543 423.106,651.254C420.767,649.118 416.231,646.166 411.682,644.35C408.897,643.238 406.12,642.511 403.909,642.873C400.224,643.476 395.052,645.762 393.982,646.714C393.978,646.717 393.975,646.72 393.971,646.723C393.88,646.803 393.711,646.925 393.631,646.981C393.415,647.155 393.195,647.313 392.976,647.455C392.741,647.608 392.51,647.749 392.27,647.876C392.263,647.879 392.257,647.882 392.251,647.886C392.015,648.008 391.782,648.113 391.54,648.213L391.535,648.215C391.269,648.323 391.002,648.423 390.724,648.503C390.476,648.577 390.229,648.634 389.978,648.682C389.97,648.684 389.962,648.685 389.954,648.687C389.673,648.738 389.4,648.783 389.12,648.809C389.114,648.809 389.108,648.81 389.102,648.81C388.859,648.83 388.613,648.84 388.364,648.84C388.084,648.84 387.805,648.834 387.525,648.805C387.259,648.781 387.001,648.738 386.741,648.687C386.471,648.634 386.202,648.574 385.938,648.495C385.681,648.419 385.436,648.327 385.188,648.228C385.18,648.225 385.171,648.221 385.162,648.218C384.916,648.116 384.67,648.005 384.448,647.89C384.2,647.764 383.966,647.618 383.731,647.466L383.729,647.465C383.49,647.309 383.26,647.144 383.048,646.972C382.978,646.921 382.814,646.801 382.724,646.723C382.719,646.719 382.714,646.714 382.709,646.71C381.646,645.758 376.481,643.477 372.795,642.873C370.576,642.514 367.796,643.242 365.012,644.354C360.464,646.17 355.936,649.121 353.598,651.254C345.888,658.292 334.025,675.073 336.255,694.243C336.878,691.496 337.752,688.803 338.868,686.195L338.87,686.191C340.379,682.679 344.454,681.053 347.966,682.553L347.971,682.555C351.484,684.065 353.112,688.137 351.609,691.653L351.608,691.654C350.395,694.486 349.587,697.462 349.216,700.495C348.291,708.037 350.192,714.358 351.938,718.328C352.547,719.709 352.669,721.182 352.378,722.553C362.572,730.558 374.161,733.014 377.326,733.561C382.56,734.464 383.655,734.342 386.576,733.977L387.315,733.884C387.334,733.882 387.352,733.88 387.371,733.878C387.432,733.872 387.524,733.869 387.597,733.867C387.849,733.848 388.105,733.852 388.362,733.852C388.62,733.852 388.882,733.848 389.139,733.87C389.231,733.873 389.341,733.879 389.425,733.89ZM355.622,668.221C357.622,666.662 360.51,667.021 362.069,669.018C363.628,671.017 363.274,673.905 361.27,675.467C359.145,677.122 357.421,678.889 356.347,680.081C355.441,681.089 354.189,681.599 352.933,681.599C351.837,681.599 350.737,681.211 349.859,680.418C347.978,678.718 347.826,675.813 349.526,673.929C351.446,671.801 353.497,669.881 355.622,668.221ZM643.476,492.67C648.846,491.277 654.622,492.15 659.391,495.204C665.267,498.968 668.776,505.506 668.664,512.483L668.226,539.753C668.106,547.264 663.752,554.062 656.98,557.313C650.208,560.565 642.18,559.711 636.244,555.108L614.537,538.277C609.055,534.026 606.165,527.24 606.899,520.342C607.252,517.024 608.419,513.908 610.232,511.233C574.615,466.473 519.909,438.988 460.431,438.988C354.796,438.988 269.034,524.75 269.034,630.385C269.034,736.02 354.796,821.782 460.431,821.782C519.348,821.782 574.981,794.648 611.254,748.221C617.652,740.033 629.493,738.579 637.682,744.976C645.87,751.373 647.324,763.215 640.927,771.404C597.518,826.965 530.939,859.437 460.431,859.437C334.014,859.437 231.379,756.802 231.379,630.385C231.379,503.968 334.014,401.333 460.431,401.333C533.746,401.333 601.001,436.231 643.476,492.67Z" style="fill:rgb(199,18,63);"/>
</svg>
