<?xml version="1.0" encoding="UTF-8" standalone="no"?>
<!DOCTYPE svg PUBLIC "-//W3C//DTD SVG 1.1//EN" "http://www.w3.org/Graphics/SVG/1.1/DTD/svg11.dtd">
<svg width="100%" height="100%" viewBox="0 0 1200 1800" version="1.1" xmlns="http://www.w3.org/2000/svg" xmlns:xlink="http://www.w3.org/1999/xlink" xml:space="preserve" xmlns:serif="http://www.serif.com/" style="fill-rule:evenodd;clip-rule:evenodd;stroke-linejoin:round;stroke-miterlimit:2;">
    <path d="M765.354,498.425C778.392,498.425 788.976,509.01 788.976,522.047C788.976,535.085 778.392,545.669 765.354,545.669C752.317,545.669 741.732,535.085 741.732,522.047C741.732,509.01 752.317,498.425 765.354,498.425ZM765.354,616.535C778.392,616.535 788.976,627.12 788.976,640.157C788.976,653.195 778.392,663.78 765.354,663.78C752.317,663.78 741.732,653.195 741.732,640.157C741.732,627.12 752.317,616.535 765.354,616.535ZM765.354,734.646C778.392,734.646 788.976,745.23 788.976,758.268C788.976,771.305 778.392,781.89 765.354,781.89C752.317,781.89 741.732,771.305 741.732,758.268C741.732,745.23 752.317,734.646 765.354,734.646ZM366.568,212.172L77.526,212.172L77.526,1682.32L1122.47,1682.32L1122.47,1443.31C1122.47,1431.81 1131.81,1422.47 1143.31,1422.47C1154.81,1422.47 1164.14,1431.81 1164.14,1443.31L1164.14,1703.15C1164.14,1714.66 1154.81,1723.98 1143.31,1723.98L56.693,1723.98C45.187,1723.98 35.86,1714.66 35.86,1703.15L35.86,191.339C35.86,179.833 45.187,170.505 56.693,170.505L366.568,170.505L366.568,144.094C366.568,132.589 375.896,123.261 387.402,123.261L425.623,123.261L425.623,120.472C425.623,95.937 445.543,76.017 470.079,76.017L706.299,76.017C730.835,76.017 750.755,95.937 750.755,120.472L750.755,123.261L788.976,123.261C800.482,123.261 809.81,132.589 809.81,144.094L809.81,170.505L1143.31,170.505C1154.81,170.505 1164.14,179.833 1164.14,191.339L1164.14,947.244C1164.14,958.742 1154.81,968.077 1143.31,968.077C1131.81,968.077 1122.47,958.742 1122.47,947.244C1122.47,947.244 1122.47,333.849 1122.47,212.172L809.81,212.172L809.81,264.993L1048.82,264.993C1060.33,264.993 1069.65,274.321 1069.65,285.827L1069.65,1608.66C1069.65,1620.17 1060.33,1629.5 1048.82,1629.5L151.181,1629.5C139.675,1629.5 130.348,1620.17 130.348,1608.66L130.348,758.268C130.348,746.769 139.683,737.434 151.181,737.434C162.679,737.434 172.014,746.769 172.014,758.268L172.014,1587.83L1027.99,1587.83L1027.99,306.66L809.81,306.66L809.81,333.071C809.81,344.577 800.482,353.904 788.976,353.904L387.402,353.904C375.896,353.904 366.568,344.577 366.568,333.071L366.568,306.66L172.014,306.66L172.014,592.913C172.014,604.412 162.679,613.747 151.181,613.747C139.683,613.747 130.348,604.412 130.348,592.913L130.348,285.827C130.348,274.321 139.675,264.993 151.181,264.993L366.568,264.993L366.568,212.172ZM768.143,191.339L768.143,164.928L729.921,164.928C718.415,164.928 709.088,155.6 709.088,144.094L709.088,120.472C709.088,118.933 707.838,117.684 706.299,117.684L470.079,117.684C468.54,117.684 467.29,118.933 467.29,120.472L467.29,144.094C467.29,155.6 457.963,164.928 446.457,164.928C446.457,164.928 408.235,164.928 408.235,164.928L408.235,285.827L408.235,312.238C408.235,312.238 768.143,312.238 768.143,312.238L768.143,191.339ZM1164.14,1372.44C1164.14,1383.94 1154.81,1393.27 1143.31,1393.27C1131.81,1393.27 1122.47,1383.94 1122.47,1372.44L1122.47,1325.2C1122.47,1313.7 1131.81,1304.36 1143.31,1304.36C1154.81,1304.36 1164.14,1313.7 1164.14,1325.2L1164.14,1372.44ZM1164.14,1230.71C1164.14,1242.21 1154.81,1251.54 1143.31,1251.54C1131.81,1251.54 1122.47,1242.21 1122.47,1230.71L1122.47,1183.46C1122.47,1171.97 1131.81,1162.63 1143.31,1162.63C1154.81,1162.63 1164.14,1171.97 1164.14,1183.46L1164.14,1230.71ZM1164.14,1088.98C1164.14,1100.48 1154.81,1109.81 1143.31,1109.81C1131.81,1109.81 1122.47,1100.48 1122.47,1088.98L1122.47,1041.73C1122.47,1030.23 1131.81,1020.9 1143.31,1020.9C1154.81,1020.9 1164.14,1030.23 1164.14,1041.73L1164.14,1088.98ZM836.22,779.101C824.722,779.101 815.387,769.766 815.387,758.268C815.387,746.769 824.722,737.434 836.22,737.434L954.331,737.434C965.829,737.434 975.164,746.769 975.164,758.268C975.164,769.766 965.829,779.101 954.331,779.101L836.22,779.101ZM836.22,660.991C824.722,660.991 815.387,651.656 815.387,640.157C815.387,628.659 824.722,619.324 836.22,619.324L954.331,619.324C965.829,619.324 975.164,628.659 975.164,640.157C975.164,651.656 965.829,660.991 954.331,660.991L836.22,660.991ZM836.22,542.881C824.722,542.881 815.387,533.545 815.387,522.047C815.387,510.549 824.722,501.214 836.22,501.214L954.331,501.214C965.829,501.214 975.164,510.549 975.164,522.047C975.164,533.545 965.829,542.881 954.331,542.881L836.22,542.881ZM668.077,947.244L668.077,1018.11C668.077,1029.62 658.75,1038.94 647.244,1038.94L245.669,1038.94C234.163,1038.94 224.836,1029.62 224.836,1018.11L224.836,947.244C224.836,935.738 234.163,926.411 245.669,926.411L647.244,926.411C658.75,926.411 668.077,935.738 668.077,947.244ZM626.411,968.077L266.503,968.077L266.503,997.277C335.674,997.277 557.239,997.277 626.411,997.277L626.411,968.077ZM668.077,1112.6L668.077,1183.46C668.077,1194.97 658.75,1204.3 647.244,1204.3L245.669,1204.3C234.163,1204.3 224.836,1194.97 224.836,1183.46L224.836,1112.6C224.836,1101.09 234.163,1091.77 245.669,1091.77L647.244,1091.77C658.75,1091.77 668.077,1101.09 668.077,1112.6ZM626.411,1133.43C626.411,1133.43 266.503,1133.43 266.503,1133.43L266.503,1162.63C346.08,1162.63 626.411,1162.63 626.411,1162.63L626.411,1133.43ZM975.164,947.244L975.164,1183.46C975.164,1194.97 965.837,1204.3 954.331,1204.3L741.732,1204.3C730.226,1204.3 720.899,1194.97 720.899,1183.46L720.899,947.244C720.899,935.738 730.226,926.411 741.732,926.411L954.331,926.411C965.837,926.411 975.164,935.738 975.164,947.244ZM933.497,968.077L762.566,968.077C762.566,968.077 762.566,1162.63 762.566,1162.63C762.566,1162.63 933.497,1162.63 933.497,1162.63L933.497,968.077ZM787.349,1085.71C778.196,1078.75 776.415,1065.67 783.374,1056.52C790.333,1047.37 803.414,1045.59 812.567,1052.55C812.567,1052.55 837.913,1071.82 837.913,1071.82L879.521,1017.09C886.48,1007.94 899.561,1006.16 908.714,1013.12C917.867,1020.08 919.648,1033.16 912.689,1042.31L858.472,1113.62C851.508,1122.78 838.438,1124.56 829.278,1117.59L787.349,1085.71ZM975.164,1277.95L975.164,1348.82C975.164,1360.33 965.837,1369.65 954.331,1369.65L245.669,1369.65C234.163,1369.65 224.836,1360.33 224.836,1348.82L224.836,1277.95C224.836,1266.45 234.163,1257.12 245.669,1257.12L954.331,1257.12C965.837,1257.12 975.164,1266.45 975.164,1277.95ZM933.497,1298.79C933.497,1298.79 381.497,1298.79 266.503,1298.79C266.503,1298.79 266.503,1327.99 266.503,1327.99C266.503,1327.99 933.497,1327.99 933.497,1327.99L933.497,1298.79ZM975.164,1443.31L975.164,1514.17C975.164,1525.68 965.837,1535.01 954.331,1535.01L245.669,1535.01C234.163,1535.01 224.836,1525.68 224.836,1514.17L224.836,1443.31C224.836,1431.8 234.163,1422.47 245.669,1422.47L954.331,1422.47C965.837,1422.47 975.164,1431.8 975.164,1443.31ZM933.497,1464.14C933.497,1464.14 266.503,1464.14 266.503,1464.14C266.503,1464.14 266.503,1493.34 266.503,1493.34C370.197,1493.34 829.803,1493.34 933.497,1493.34L933.497,1464.14Z"/>
    <path d="M322.796,700.064C296.594,691.988 274.893,681.852 259.397,670.444C237.821,654.559 227.039,635.65 227.039,616.535C227.039,597.421 237.821,578.511 259.397,562.627C274.893,551.219 296.594,541.083 322.796,533.007C316.689,506.277 314.616,482.417 316.748,463.292C319.716,436.664 330.701,417.873 347.255,408.315C363.809,398.758 385.575,398.64 410.12,409.384C427.748,417.1 447.376,430.825 467.471,449.479C487.566,430.825 507.194,417.1 524.822,409.384C549.366,398.64 571.133,398.758 587.687,408.315C604.241,417.873 615.226,436.664 618.194,463.292C620.325,482.417 618.253,506.277 612.146,533.007C638.348,541.083 660.048,551.219 675.545,562.627C697.121,578.511 707.903,597.421 707.903,616.535C707.903,635.65 697.121,654.559 675.545,670.444C660.048,681.852 638.348,691.988 612.146,700.064C618.253,726.793 620.325,750.654 618.194,769.779C615.226,796.406 604.241,815.198 587.687,824.755C571.133,834.313 549.366,834.43 524.822,823.687C507.194,815.971 487.566,802.246 467.471,783.592C447.376,802.246 427.748,815.971 410.12,823.687C385.575,834.43 363.809,834.313 347.255,824.755C330.701,815.198 319.716,796.406 316.748,769.779C314.616,750.654 316.689,726.793 322.796,700.064ZM332.809,568.662C319.405,572.86 307.397,577.691 297.092,583.057C286.009,588.829 277.067,595.102 271.022,602.029C266.982,606.658 264.299,611.39 264.299,616.535C264.299,621.68 266.982,626.413 271.022,631.042C277.067,637.969 286.009,644.242 297.092,650.013C307.397,655.38 319.405,660.211 332.809,664.409C337.912,648.951 344.154,632.897 351.508,616.535C344.154,600.174 337.912,584.12 332.809,568.662ZM441.6,475.978C431.262,466.469 421.074,458.486 411.274,452.244C400.734,445.532 390.831,440.924 381.81,439.152C375.78,437.968 370.341,438.011 365.885,440.584C361.429,443.156 358.673,447.846 356.683,453.659C353.707,462.357 352.745,473.238 353.289,485.722C353.794,497.33 355.614,510.144 358.68,523.852C374.619,520.542 391.643,517.921 409.489,516.109C419.982,501.559 430.764,488.127 441.6,475.978ZM576.261,523.852C579.328,510.144 581.148,497.33 581.653,485.722C582.196,473.238 581.235,462.357 578.259,453.659C576.269,447.846 573.512,443.156 569.057,440.584C564.601,438.011 559.161,437.968 553.132,439.152C544.111,440.924 534.207,445.532 523.667,452.244C513.868,458.486 503.68,466.469 493.342,475.978C504.178,488.127 514.96,501.559 525.452,516.109C543.299,517.921 560.323,520.542 576.261,523.852ZM602.133,664.409C615.537,660.211 627.544,655.38 637.849,650.013C648.933,644.242 657.875,637.969 663.92,631.042C667.96,626.413 670.642,621.68 670.642,616.535C670.642,611.39 667.96,606.658 663.92,602.029C657.875,595.102 648.933,588.829 637.849,583.057C627.544,577.691 615.537,572.86 602.133,568.662C597.029,584.12 590.788,600.174 583.434,616.535C590.788,632.897 597.029,648.951 602.133,664.409ZM493.342,757.093C503.68,766.602 513.868,774.585 523.667,780.827C534.207,787.539 544.111,792.147 553.132,793.919C559.161,795.102 564.601,795.06 569.057,792.487C573.512,789.915 576.269,785.225 578.259,779.412C581.235,770.713 582.196,759.833 581.653,747.349C581.148,735.741 579.328,722.926 576.261,709.219C560.323,712.529 543.299,715.15 525.452,716.962C514.96,731.512 504.178,744.944 493.342,757.093ZM358.68,709.219C355.614,722.926 353.794,735.741 353.289,747.349C352.745,759.833 353.707,770.713 356.683,779.412C358.673,785.225 361.429,789.915 365.885,792.487C370.341,795.06 375.78,795.102 381.81,793.919C390.831,792.147 400.734,787.539 411.274,780.827C421.074,774.585 431.262,766.602 441.6,757.093C430.764,744.944 419.982,731.512 409.489,716.962C391.643,715.15 374.619,712.529 358.68,709.219ZM382.563,557.101C377.897,557.869 373.319,558.699 368.836,559.589C370.307,563.916 371.877,568.295 373.545,572.72C375.002,570.107 376.485,567.492 377.995,564.876C379.505,562.261 381.028,559.669 382.563,557.101ZM373.545,660.351C371.877,664.776 370.307,669.155 368.836,673.482C373.319,674.372 377.897,675.202 382.563,675.97C381.028,673.402 379.505,670.81 377.995,668.194C376.485,665.579 375.002,662.964 373.545,660.351ZM476.489,513.286C473.491,509.629 470.483,506.079 467.471,502.642C464.459,506.079 461.451,509.629 458.453,513.286C461.445,513.24 464.451,513.217 467.471,513.217C470.491,513.217 473.497,513.24 476.489,513.286ZM561.397,572.72C563.065,568.295 564.635,563.916 566.105,559.589C561.623,558.699 557.045,557.869 552.379,557.101C553.914,559.669 555.437,562.261 556.947,564.876C558.457,567.492 559.94,570.107 561.397,572.72ZM552.379,675.97C557.045,675.202 561.623,674.372 566.105,673.482C564.635,669.155 563.065,664.776 561.397,660.351C559.94,662.964 558.457,665.579 556.947,668.194C555.437,670.81 553.914,673.402 552.379,675.97ZM458.453,719.785C461.451,723.442 464.459,726.992 467.471,730.429C470.483,726.992 473.491,723.442 476.489,719.785C473.497,719.831 470.491,719.853 467.471,719.853C464.451,719.853 461.445,719.831 458.453,719.785ZM430.042,551.706C423.266,561.825 416.648,572.448 410.263,583.507C403.879,594.565 397.988,605.608 392.612,616.535C397.988,627.463 403.879,638.506 410.263,649.564C416.648,660.623 423.266,671.246 430.042,681.365C442.193,682.173 454.702,682.593 467.471,682.593C480.24,682.593 492.749,682.173 504.9,681.365C511.676,671.246 518.294,660.623 524.679,649.564C531.063,638.506 536.954,627.463 542.33,616.535C536.954,605.608 531.063,594.565 524.679,583.507C518.294,572.448 511.676,561.825 504.9,551.706C492.749,550.898 480.24,550.478 467.471,550.478C454.702,550.478 442.193,550.898 430.042,551.706ZM467.471,575.2C490.285,575.2 508.807,593.722 508.807,616.535C508.807,639.349 490.285,657.871 467.471,657.871C444.657,657.871 426.135,639.349 426.135,616.535C426.135,593.722 444.657,575.2 467.471,575.2Z" style="fill:rgb(97,218,251);"/>
</svg>
