<?xml version="1.0" encoding="UTF-8" standalone="no"?>
<!DOCTYPE svg PUBLIC "-//W3C//DTD SVG 1.1//EN" "http://www.w3.org/Graphics/SVG/1.1/DTD/svg11.dtd">
<svg width="100%" height="100%" viewBox="0 0 1200 1800" version="1.1" xmlns="http://www.w3.org/2000/svg" xmlns:xlink="http://www.w3.org/1999/xlink" xml:space="preserve" xmlns:serif="http://www.serif.com/" style="fill-rule:evenodd;clip-rule:evenodd;stroke-linejoin:round;stroke-miterlimit:2;">
    <path d="M765.354,498.425C778.392,498.425 788.976,509.01 788.976,522.047C788.976,535.085 778.392,545.669 765.354,545.669C752.317,545.669 741.732,535.085 741.732,522.047C741.732,509.01 752.317,498.425 765.354,498.425ZM765.354,616.535C778.392,616.535 788.976,627.12 788.976,640.157C788.976,653.195 778.392,663.78 765.354,663.78C752.317,663.78 741.732,653.195 741.732,640.157C741.732,627.12 752.317,616.535 765.354,616.535ZM765.354,734.646C778.392,734.646 788.976,745.23 788.976,758.268C788.976,771.305 778.392,781.89 765.354,781.89C752.317,781.89 741.732,771.305 741.732,758.268C741.732,745.23 752.317,734.646 765.354,734.646ZM366.568,212.172L77.526,212.172L77.526,1682.32L1122.47,1682.32L1122.47,1443.31C1122.47,1431.81 1131.81,1422.47 1143.31,1422.47C1154.81,1422.47 1164.14,1431.81 1164.14,1443.31L1164.14,1703.15C1164.14,1714.66 1154.81,1723.98 1143.31,1723.98L56.693,1723.98C45.187,1723.98 35.86,1714.66 35.86,1703.15L35.86,191.339C35.86,179.833 45.187,170.505 56.693,170.505L366.568,170.505L366.568,144.094C366.568,132.589 375.896,123.261 387.402,123.261L425.623,123.261L425.623,120.472C425.623,95.937 445.543,76.017 470.079,76.017L706.299,76.017C730.835,76.017 750.755,95.937 750.755,120.472L750.755,123.261L788.976,123.261C800.482,123.261 809.81,132.589 809.81,144.094L809.81,170.505L1143.31,170.505C1154.81,170.505 1164.14,179.833 1164.14,191.339L1164.14,947.244C1164.14,958.742 1154.81,968.077 1143.31,968.077C1131.81,968.077 1122.47,958.742 1122.47,947.244C1122.47,947.244 1122.47,333.849 1122.47,212.172L809.81,212.172L809.81,264.993L1048.82,264.993C1060.33,264.993 1069.65,274.321 1069.65,285.827L1069.65,1608.66C1069.65,1620.17 1060.33,1629.5 1048.82,1629.5L151.181,1629.5C139.675,1629.5 130.348,1620.17 130.348,1608.66L130.348,758.268C130.348,746.769 139.683,737.434 151.181,737.434C162.679,737.434 172.014,746.769 172.014,758.268L172.014,1587.83L1027.99,1587.83L1027.99,306.66L809.81,306.66L809.81,333.071C809.81,344.577 800.482,353.904 788.976,353.904L387.402,353.904C375.896,353.904 366.568,344.577 366.568,333.071L366.568,306.66L172.014,306.66L172.014,592.913C172.014,604.412 162.679,613.747 151.181,613.747C139.683,613.747 130.348,604.412 130.348,592.913L130.348,285.827C130.348,274.321 139.675,264.993 151.181,264.993L366.568,264.993L366.568,212.172ZM768.143,191.339L768.143,164.928L729.921,164.928C718.415,164.928 709.088,155.6 709.088,144.094L709.088,120.472C709.088,118.933 707.838,117.684 706.299,117.684L470.079,117.684C468.54,117.684 467.29,118.933 467.29,120.472L467.29,144.094C467.29,155.6 457.963,164.928 446.457,164.928C446.457,164.928 408.235,164.928 408.235,164.928L408.235,285.827L408.235,312.238C408.235,312.238 768.143,312.238 768.143,312.238L768.143,191.339ZM1164.14,1372.44C1164.14,1383.94 1154.81,1393.27 1143.31,1393.27C1131.81,1393.27 1122.47,1383.94 1122.47,1372.44L1122.47,1325.2C1122.47,1313.7 1131.81,1304.36 1143.31,1304.36C1154.81,1304.36 1164.14,1313.7 1164.14,1325.2L1164.14,1372.44ZM1164.14,1230.71C1164.14,1242.21 1154.81,1251.54 1143.31,1251.54C1131.81,1251.54 1122.47,1242.21 1122.47,1230.71L1122.47,1183.46C1122.47,1171.97 1131.81,1162.63 1143.31,1162.63C1154.81,1162.63 1164.14,1171.97 1164.14,1183.46L1164.14,1230.71ZM1164.14,1088.98C1164.14,1100.48 1154.81,1109.81 1143.31,1109.81C1131.81,1109.81 1122.47,1100.48 1122.47,1088.98L1122.47,1041.73C1122.47,1030.23 1131.81,1020.9 1143.31,1020.9C1154.81,1020.9 1164.14,1030.23 1164.14,1041.73L1164.14,1088.98ZM836.22,779.101C824.722,779.101 815.387,769.766 815.387,758.268C815.387,746.769 824.722,737.434 836.22,737.434L954.331,737.434C965.829,737.434 975.164,746.769 975.164,758.268C975.164,769.766 965.829,779.101 954.331,779.101L836.22,779.101ZM836.22,660.991C824.722,660.991 815.387,651.656 815.387,640.157C815.387,628.659 824.722,619.324 836.22,619.324L954.331,619.324C965.829,619.324 975.164,628.659 975.164,640.157C975.164,651.656 965.829,660.991 954.331,660.991L836.22,660.991ZM836.22,542.881C824.722,542.881 815.387,533.545 815.387,522.047C815.387,510.549 824.722,501.214 836.22,501.214L954.331,501.214C965.829,501.214 975.164,510.549 975.164,522.047C975.164,533.545 965.829,542.881 954.331,542.881L836.22,542.881ZM668.077,947.244L668.077,1018.11C668.077,1029.62 658.75,1038.94 647.244,1038.94L245.669,1038.94C234.163,1038.94 224.836,1029.62 224.836,1018.11L224.836,947.244C224.836,935.738 234.163,926.411 245.669,926.411L647.244,926.411C658.75,926.411 668.077,935.738 668.077,947.244ZM626.411,968.077L266.503,968.077L266.503,997.277C335.674,997.277 557.239,997.277 626.411,997.277L626.411,968.077ZM668.077,1112.6L668.077,1183.46C668.077,1194.97 658.75,1204.3 647.244,1204.3L245.669,1204.3C234.163,1204.3 224.836,1194.97 224.836,1183.46L224.836,1112.6C224.836,1101.09 234.163,1091.77 245.669,1091.77L647.244,1091.77C658.75,1091.77 668.077,1101.09 668.077,1112.6ZM626.411,1133.43C626.411,1133.43 266.503,1133.43 266.503,1133.43L266.503,1162.63C346.08,1162.63 626.411,1162.63 626.411,1162.63L626.411,1133.43ZM975.164,947.244L975.164,1183.46C975.164,1194.97 965.837,1204.3 954.331,1204.3L741.732,1204.3C730.226,1204.3 720.899,1194.97 720.899,1183.46L720.899,947.244C720.899,935.738 730.226,926.411 741.732,926.411L954.331,926.411C965.837,926.411 975.164,935.738 975.164,947.244ZM933.497,968.077L762.566,968.077C762.566,968.077 762.566,1162.63 762.566,1162.63C762.566,1162.63 933.497,1162.63 933.497,1162.63L933.497,968.077ZM787.349,1085.71C778.196,1078.75 776.415,1065.67 783.374,1056.52C790.333,1047.37 803.414,1045.59 812.567,1052.55C812.567,1052.55 837.913,1071.82 837.913,1071.82L879.521,1017.09C886.48,1007.94 899.561,1006.16 908.714,1013.12C917.867,1020.08 919.648,1033.16 912.689,1042.31L858.472,1113.62C851.508,1122.78 838.438,1124.56 829.278,1117.59L787.349,1085.71ZM975.164,1277.95L975.164,1348.82C975.164,1360.33 965.837,1369.65 954.331,1369.65L245.669,1369.65C234.163,1369.65 224.836,1360.33 224.836,1348.82L224.836,1277.95C224.836,1266.45 234.163,1257.12 245.669,1257.12L954.331,1257.12C965.837,1257.12 975.164,1266.45 975.164,1277.95ZM933.497,1298.79C933.497,1298.79 381.497,1298.79 266.503,1298.79C266.503,1298.79 266.503,1327.99 266.503,1327.99C266.503,1327.99 933.497,1327.99 933.497,1327.99L933.497,1298.79ZM975.164,1443.31L975.164,1514.17C975.164,1525.68 965.837,1535.01 954.331,1535.01L245.669,1535.01C234.163,1535.01 224.836,1525.68 224.836,1514.17L224.836,1443.31C224.836,1431.8 234.163,1422.47 245.669,1422.47L954.331,1422.47C965.837,1422.47 975.164,1431.8 975.164,1443.31ZM933.497,1464.14C933.497,1464.14 266.503,1464.14 266.503,1464.14C266.503,1464.14 266.503,1493.34 266.503,1493.34C370.197,1493.34 829.803,1493.34 933.497,1493.34L933.497,1464.14Z" fill="currentColor"/>
    <path d="M654.905,648.007C682.971,673.72 704.725,722.292 686.538,768.279C666.017,820.19 611.608,832.134 600.899,833.982C594.1,835.155 589.816,835.569 586.146,835.569C583.259,835.569 580.738,835.314 577.694,834.936C574.645,835.314 572.124,835.569 569.235,835.569C565.565,835.569 561.281,835.155 554.483,833.982C543.773,832.134 489.365,820.19 468.844,768.279C450.63,722.218 472.486,673.556 500.624,647.87C504.953,643.921 515.882,635.861 528.688,630.834C537.509,627.37 547.202,625.375 556.289,626.861C557.966,627.136 559.827,627.549 561.787,628.074C549.307,586.836 517.375,553.343 461.793,521.918C461.485,522.038 461.167,522.144 460.841,522.235C460.496,522.331 460.154,522.385 459.819,522.425C459.279,522.688 458.716,522.914 458.119,523.091L458.111,523.094C456.555,523.552 454.785,524.02 452.855,524.466C408.632,552.441 385.285,578.502 362.387,626.841C371.45,625.397 381.098,627.393 389.879,630.841C402.682,635.868 413.6,643.922 417.925,647.869C446.067,673.558 467.915,722.215 449.709,768.278C429.189,820.189 374.779,832.133 364.07,833.981C357.271,835.154 352.987,835.568 349.317,835.568C346.43,835.568 343.909,835.313 340.865,834.934C337.816,835.313 335.295,835.568 332.407,835.568C328.737,835.568 324.452,835.154 317.654,833.981C306.945,832.133 252.536,820.189 232.015,768.278C213.808,722.216 235.664,673.559 263.811,647.879C268.132,643.93 279.052,635.87 291.858,630.842C300.679,627.379 310.374,625.383 319.469,626.869C323.861,627.588 329.501,629.259 334.907,631.432C356.501,582.099 377.655,552.017 411.805,525.088C405.971,523.894 399.898,522.067 393.697,519.395C359.245,504.557 345.579,473.865 342.21,464.803C341.379,462.571 341.292,460.262 341.803,458.128C342.275,454.004 344.933,450.271 349.072,448.659C356.282,445.849 394.023,433.058 430.157,455.614C441.934,462.972 450.341,472.148 456.298,480.975C464.208,465.367 477.659,446.547 500.054,432.562C549.291,401.811 600.842,419.273 610.681,423.095C615.001,424.773 617.736,428.761 618.032,433.089C618.553,435.242 618.477,437.559 617.649,439.796L617.647,439.802C613.044,452.186 594.361,494.161 547.279,514.438C533.696,520.285 520.542,523.201 508.488,524.303C551.31,555.275 576.597,589.905 586.396,630.38C590.928,628.725 595.451,627.47 599.11,626.869L599.114,626.868C608.222,625.381 617.916,627.378 626.734,630.841C639.536,635.869 650.445,643.929 654.77,647.878C654.816,647.92 654.861,647.963 654.905,648.007ZM651.761,650.41C651.517,648.598 651.141,646.942 650.59,647.182C649.907,647.479 649.468,647.858 649.213,648.287C650.202,649.068 651.057,649.785 651.761,650.41ZM442.307,502.93C438.103,494.174 430.677,483.219 417.89,475.235C399.78,463.924 380.66,464.835 368.806,467.105C374.439,476.986 384.908,490.424 402.833,498.145C418.055,504.699 432.521,504.428 442.307,502.93ZM512.307,452.182C490.286,465.936 478.945,485.548 473.342,499.22C488.557,502.498 512.421,504.255 538.127,493.184C568.41,480.139 584.374,456.127 591.71,441.412C575.188,437.306 542.791,433.147 512.307,452.182ZM579.483,806.7L580.646,806.845C585.517,807.449 587.353,807.659 596.093,806.151C596.503,806.081 596.999,805.99 597.581,805.874C603.768,803.493 612.084,798.924 618.981,790.296L618.988,790.287C620.18,788.805 621.293,787.232 622.306,785.615C624.711,781.775 629.002,779.827 633.23,780.235C629.866,777.619 628.08,773.238 628.994,768.795C629.477,766.412 629.792,764.01 629.925,761.657C630.279,755.292 635.753,750.447 642.09,750.753C642.1,750.754 642.109,750.754 642.119,750.755C648.491,751.11 653.375,756.566 653.02,762.949C652.828,766.412 652.369,769.928 651.661,773.403C651.652,773.447 651.643,773.49 651.633,773.534C654.989,768.97 657.942,763.786 660.27,757.897C675.654,718.987 650.874,682.574 635.718,668.739C631.813,665.176 624.248,660.251 616.653,657.219C612.004,655.363 607.364,654.148 603.664,654.746C597.517,655.754 588.888,659.563 587.113,661.151C587.104,661.158 587.096,661.166 587.087,661.173C586.935,661.307 586.654,661.51 586.52,661.604C586.169,661.887 585.809,662.146 585.436,662.388C585.05,662.645 584.659,662.883 584.254,663.098L584.24,663.105C583.845,663.312 583.442,663.492 583.032,663.66C583.025,663.663 583.017,663.666 583.009,663.669C582.564,663.848 582.127,664.013 581.669,664.145C581.27,664.265 580.868,664.352 580.465,664.435C580.442,664.44 580.418,664.444 580.394,664.449C579.93,664.535 579.469,664.612 578.995,664.655C578.983,664.656 578.97,664.657 578.958,664.658C578.546,664.692 578.138,664.707 577.726,664.707C577.258,664.707 576.791,664.697 576.324,664.65C575.885,664.609 575.455,664.537 575.021,664.453C575.01,664.45 574.999,664.448 574.988,664.446C574.551,664.357 574.12,664.26 573.688,664.133C573.26,664.009 572.836,663.857 572.423,663.688C571.976,663.512 571.531,663.313 571.099,663.082C570.712,662.876 570.34,662.652 569.968,662.407C569.961,662.403 569.955,662.399 569.948,662.394C569.568,662.141 569.197,661.877 568.838,661.586C568.707,661.493 568.444,661.303 568.296,661.173C568.288,661.166 568.28,661.158 568.271,661.151C566.495,659.562 557.87,655.752 551.716,654.745L551.712,654.745C548.017,654.136 543.38,655.35 538.733,657.206C531.137,660.239 523.569,665.174 519.666,668.738C504.507,682.578 479.73,718.987 495.111,757.897C510.172,795.997 551.225,804.759 559.288,806.151C568.026,807.659 569.848,807.456 574.732,806.845L575.964,806.692C575.995,806.688 576.027,806.684 576.058,806.681C576.159,806.671 576.303,806.666 576.422,806.663C576.848,806.631 577.28,806.637 577.708,806.637C578.14,806.637 578.576,806.631 579.005,806.666C579.16,806.672 579.343,806.682 579.483,806.7ZM644.37,781.935C643.1,782.41 641.736,782.665 640.333,782.665C639.959,782.665 639.58,782.647 639.2,782.61C640.022,783.245 640.738,783.974 641.342,784.772C642.366,783.864 643.377,782.919 644.37,781.935ZM342.655,806.704L343.818,806.848C348.692,807.453 350.525,807.663 359.265,806.155C367.328,804.763 408.381,796.001 423.442,757.9C438.827,718.987 414.046,682.581 398.886,668.741C394.982,665.175 387.409,660.246 379.814,657.215C375.165,655.359 370.528,654.145 366.837,654.749C360.685,655.757 352.049,659.572 350.263,661.161C350.257,661.166 350.251,661.172 350.245,661.177C350.093,661.311 349.812,661.513 349.678,661.608C349.318,661.898 348.949,662.162 348.583,662.398C348.193,662.654 347.805,662.889 347.405,663.101C347.394,663.107 347.384,663.112 347.373,663.118C346.979,663.322 346.591,663.498 346.187,663.664L346.178,663.667C345.733,663.848 345.288,664.015 344.825,664.148C344.411,664.273 343.998,664.367 343.579,664.447C343.565,664.45 343.552,664.453 343.538,664.455C343.07,664.54 342.615,664.616 342.146,664.659C342.136,664.66 342.126,664.661 342.117,664.661C341.71,664.695 341.299,664.71 340.884,664.71C340.417,664.71 339.95,664.7 339.484,664.653C339.04,664.612 338.609,664.541 338.175,664.456C337.724,664.368 337.274,664.267 336.833,664.135C336.405,664.008 335.995,663.855 335.582,663.69C335.568,663.684 335.553,663.679 335.539,663.673C335.127,663.502 334.716,663.316 334.346,663.124C333.933,662.915 333.542,662.672 333.149,662.417L333.146,662.415C332.747,662.155 332.363,661.88 332.01,661.593C331.891,661.507 331.618,661.308 331.469,661.177C331.46,661.17 331.452,661.162 331.443,661.155C329.668,659.566 321.045,655.757 314.892,654.749C311.187,654.15 306.546,655.365 301.897,657.221C294.304,660.254 286.744,665.18 282.842,668.742C269.969,680.492 250.165,708.509 253.888,740.512C254.927,735.926 256.386,731.43 258.25,727.076L258.252,727.07C260.773,721.206 267.576,718.491 273.439,720.996L273.448,720.999C279.311,723.52 282.031,730.319 279.521,736.188L279.52,736.191C277.493,740.919 276.145,745.886 275.526,750.95C273.981,763.542 277.155,774.095 280.071,780.724C281.087,783.029 281.29,785.488 280.804,787.778C297.823,801.142 317.173,805.242 322.457,806.155C331.195,807.662 333.023,807.46 337.9,806.849L339.133,806.695C339.164,806.691 339.195,806.688 339.227,806.685C339.327,806.675 339.481,806.67 339.604,806.667C340.025,806.635 340.453,806.64 340.88,806.64C341.312,806.64 341.748,806.635 342.177,806.67C342.332,806.676 342.515,806.686 342.655,806.704ZM286.221,697.069C289.559,694.465 294.381,695.065 296.984,698.399C299.588,701.737 298.996,706.558 295.65,709.165C292.102,711.929 289.224,714.878 287.43,716.868C285.918,718.552 283.829,719.404 281.732,719.404C279.902,719.404 278.066,718.755 276.6,717.432C273.458,714.593 273.205,709.743 276.043,706.598C279.249,703.045 282.673,699.84 286.221,697.069Z" style="fill:rgb(199,18,63);stroke:rgb(200,18,64);stroke-width:6px;"/>
</svg>
